<svg width="1085" height="1085" viewBox="0 0 1085 1085" fill="none" xmlns="http://www.w3.org/2000/svg">
<circle opacity="0.2" cx="542.5" cy="542.5" r="542.5" fill="#FEF9D2"/>
<circle opacity="0.4" cx="542.5" cy="542.5" r="498.5" fill="#FEF9D2"/>
<circle cx="542.5" cy="542.5" r="450.5" fill="#FEF9D2"/>
<circle cx="542.5" cy="542.5" r="399.5" stroke="white" stroke-width="2" stroke-linecap="round" stroke-dasharray="4 13"/>
<path d="M107.569 518.536C107.261 513.364 111.372 509 116.553 509H164.447C169.628 509 173.739 513.364 173.431 518.536L170.505 567.536C170.221 572.29 166.284 576 161.521 576H119.479C114.716 576 110.779 572.29 110.495 567.536L107.569 518.536Z" fill="white"/>
<path d="M129.339 548.546C125.803 548.546 123.229 547.337 121.617 544.919C120.031 542.475 119.238 539.004 119.238 534.506C119.238 530.164 120.122 526.745 121.89 524.249C123.684 521.753 126.219 520.505 129.495 520.505C131.107 520.505 132.524 520.843 133.746 521.519C134.994 522.169 135.982 523.066 136.71 524.21C137.438 525.328 137.867 526.55 137.997 527.876H134.331C133.941 525.042 132.329 523.625 129.495 523.625C126.999 523.625 125.244 524.6 124.23 526.55C123.242 528.5 122.748 530.957 122.748 533.921V534.272L122.826 534.311C123.528 533.037 124.503 532.075 125.751 531.425C126.999 530.749 128.403 530.411 129.963 530.411C131.653 530.411 133.161 530.788 134.487 531.542C135.813 532.27 136.84 533.31 137.568 534.662C138.322 535.988 138.699 537.535 138.699 539.303C138.699 540.993 138.322 542.54 137.568 543.944C136.814 545.348 135.722 546.466 134.292 547.298C132.888 548.13 131.237 548.546 129.339 548.546ZM123.294 539.615C123.294 541.383 123.814 542.8 124.854 543.866C125.92 544.906 127.415 545.426 129.339 545.426C131.159 545.426 132.563 544.906 133.551 543.866C134.539 542.8 135.033 541.357 135.033 539.537C135.033 537.639 134.539 536.17 133.551 535.13C132.589 534.064 131.289 533.531 129.651 533.531C127.727 533.531 126.18 534.09 125.01 535.208C123.866 536.326 123.294 537.795 123.294 539.615ZM152.424 548.546C148.94 548.546 146.34 547.246 144.624 544.646C142.908 542.02 142.05 538.653 142.05 534.545C142.05 530.411 142.908 527.044 144.624 524.444C146.34 521.818 148.94 520.505 152.424 520.505C155.908 520.505 158.508 521.818 160.224 524.444C161.94 527.044 162.798 530.411 162.798 534.545C162.798 538.653 161.94 542.02 160.224 544.646C158.508 547.246 155.908 548.546 152.424 548.546ZM145.716 534.545C145.716 537.769 146.236 540.395 147.276 542.423C148.316 544.425 150.032 545.426 152.424 545.426C154.816 545.426 156.532 544.425 157.572 542.423C158.612 540.395 159.132 537.769 159.132 534.545C159.132 531.321 158.612 528.695 157.572 526.667C156.532 524.639 154.816 523.625 152.424 523.625C150.032 523.625 148.316 524.639 147.276 526.667C146.236 528.695 145.716 531.321 145.716 534.545Z" fill="#2C1C00"/>
<path d="M134.273 567.238C133.174 567.238 132.199 566.966 131.349 566.422C130.499 565.878 129.836 565.13 129.36 564.178C128.884 563.215 128.646 562.127 128.646 560.914C128.646 559.701 128.884 558.619 129.36 557.667C129.836 556.704 130.499 555.956 131.349 555.423C132.199 554.879 133.174 554.607 134.273 554.607C135.236 554.607 136.092 554.8 136.84 555.185C137.588 555.559 138.183 556.069 138.625 556.715C139.067 557.361 139.339 558.075 139.441 558.857H137.843C137.696 558.098 137.344 557.429 136.789 556.851C136.245 556.262 135.406 555.967 134.273 555.967C133.355 555.967 132.596 556.199 131.995 556.664C131.394 557.129 130.952 557.735 130.669 558.483C130.386 559.231 130.244 560.041 130.244 560.914C130.244 561.787 130.386 562.603 130.669 563.362C130.952 564.11 131.394 564.716 131.995 565.181C132.596 565.646 133.355 565.878 134.273 565.878C135.44 565.878 136.313 565.561 136.891 564.926C137.469 564.28 137.786 563.509 137.843 562.614H139.441C139.35 563.509 139.084 564.308 138.642 565.011C138.2 565.714 137.605 566.263 136.857 566.66C136.109 567.045 135.248 567.238 134.273 567.238ZM141.211 554.845H143.302L147.11 564.943H147.144L150.952 554.845H153.043V567H151.513V557.004H151.479L147.807 567H146.447L142.775 557.004H142.741V567H141.211V554.845Z" fill="#2C1C00"/>
<mask id="path-8-outside-1_58_28" maskUnits="userSpaceOnUse" x="138.192" y="639.328" width="52.8397" height="52.1015" fill="black">
<rect fill="white" x="138.192" y="639.328" width="52.8397" height="52.1015"/>
<path d="M167.884 669.291C168.109 670.227 168.126 671.083 167.935 671.858C167.731 672.637 167.379 673.282 166.876 673.794C166.362 674.308 165.757 674.662 165.061 674.856L164.643 673.12C165.336 672.861 165.865 672.461 166.229 671.917C166.578 671.364 166.643 670.632 166.424 669.72C166.207 668.821 165.766 668.179 165.1 667.792C164.43 667.393 163.591 667.315 162.581 667.558C161.657 667.78 161.032 668.184 160.704 668.771C160.364 669.361 160.298 670.087 160.505 670.949C160.801 672.181 161.425 673.014 162.377 673.45L162.804 675.223L155.612 675.547L153.923 668.527L155.4 668.172L156.765 673.843L160.808 673.671L160.845 673.662C159.891 673.162 159.254 672.247 158.934 670.917C158.744 670.129 158.76 669.383 158.981 668.678C159.2 667.961 159.587 667.353 160.145 666.854C160.702 666.355 161.375 666.011 162.163 665.821C163.062 665.605 163.911 665.615 164.711 665.853C165.508 666.078 166.188 666.494 166.751 667.101C167.302 667.711 167.679 668.441 167.884 669.291ZM165.384 658.904C165.568 659.667 165.577 660.381 165.411 661.047C165.23 661.703 164.917 662.267 164.47 662.739C164.011 663.214 163.475 663.558 162.862 663.771L162.444 662.034C163.742 661.527 164.229 660.602 163.906 659.259C163.622 658.077 162.961 657.363 161.925 657.117C160.886 656.859 159.664 656.899 158.26 657.237L158.094 657.277L158.084 657.319C158.768 657.506 159.341 657.856 159.803 658.371C160.253 658.888 160.567 659.516 160.745 660.254C160.938 661.055 160.937 661.811 160.744 662.522C160.538 663.236 160.164 663.847 159.622 664.355C159.064 664.854 158.367 665.204 157.529 665.406C156.729 665.599 155.953 665.596 155.202 665.399C154.451 665.202 153.799 664.818 153.245 664.248C152.687 663.666 152.301 662.925 152.084 662.026C151.681 660.351 151.968 658.999 152.945 657.969C153.907 656.93 155.453 656.154 157.583 655.641C159.64 655.146 161.361 655.181 162.748 655.747C164.132 656.3 165.011 657.352 165.384 658.904ZM157.001 663.696C157.9 663.48 158.547 663.083 158.942 662.506C159.322 661.919 159.419 661.238 159.232 660.462C159.013 659.551 158.573 658.888 157.913 658.474C157.25 658.047 156.488 657.937 155.626 658.145C154.788 658.346 154.184 658.759 153.813 659.382C153.426 659.996 153.343 660.759 153.562 661.67C153.77 662.532 154.182 663.137 154.8 663.483C155.405 663.833 156.139 663.904 157.001 663.696Z"/>
</mask>
<path d="M167.884 669.291C168.109 670.227 168.126 671.083 167.935 671.858C167.731 672.637 167.379 673.282 166.876 673.794C166.362 674.308 165.757 674.662 165.061 674.856L164.643 673.12C165.336 672.861 165.865 672.461 166.229 671.917C166.578 671.364 166.643 670.632 166.424 669.72C166.207 668.821 165.766 668.179 165.1 667.792C164.43 667.393 163.591 667.315 162.581 667.558C161.657 667.78 161.032 668.184 160.704 668.771C160.364 669.361 160.298 670.087 160.505 670.949C160.801 672.181 161.425 673.014 162.377 673.45L162.804 675.223L155.612 675.547L153.923 668.527L155.4 668.172L156.765 673.843L160.808 673.671L160.845 673.662C159.891 673.162 159.254 672.247 158.934 670.917C158.744 670.129 158.76 669.383 158.981 668.678C159.2 667.961 159.587 667.353 160.145 666.854C160.702 666.355 161.375 666.011 162.163 665.821C163.062 665.605 163.911 665.615 164.711 665.853C165.508 666.078 166.188 666.494 166.751 667.101C167.302 667.711 167.679 668.441 167.884 669.291ZM165.384 658.904C165.568 659.667 165.577 660.381 165.411 661.047C165.23 661.703 164.917 662.267 164.47 662.739C164.011 663.214 163.475 663.558 162.862 663.771L162.444 662.034C163.742 661.527 164.229 660.602 163.906 659.259C163.622 658.077 162.961 657.363 161.925 657.117C160.886 656.859 159.664 656.899 158.26 657.237L158.094 657.277L158.084 657.319C158.768 657.506 159.341 657.856 159.803 658.371C160.253 658.888 160.567 659.516 160.745 660.254C160.938 661.055 160.937 661.811 160.744 662.522C160.538 663.236 160.164 663.847 159.622 664.355C159.064 664.854 158.367 665.204 157.529 665.406C156.729 665.599 155.953 665.596 155.202 665.399C154.451 665.202 153.799 664.818 153.245 664.248C152.687 663.666 152.301 662.925 152.084 662.026C151.681 660.351 151.968 658.999 152.945 657.969C153.907 656.93 155.453 656.154 157.583 655.641C159.64 655.146 161.361 655.181 162.748 655.747C164.132 656.3 165.011 657.352 165.384 658.904ZM157.001 663.696C157.9 663.48 158.547 663.083 158.942 662.506C159.322 661.919 159.419 661.238 159.232 660.462C159.013 659.551 158.573 658.888 157.913 658.474C157.25 658.047 156.488 657.937 155.626 658.145C154.788 658.346 154.184 658.759 153.813 659.382C153.426 659.996 153.343 660.759 153.562 661.67C153.77 662.532 154.182 663.137 154.8 663.483C155.405 663.833 156.139 663.904 157.001 663.696Z" fill="#D2C6AF"/>
<path d="M167.935 671.858L177.61 674.387L177.628 674.319L177.644 674.251L167.935 671.858ZM166.876 673.794L173.948 680.864L173.981 680.831L174.013 680.798L166.876 673.794ZM165.061 674.856L155.338 677.196L157.761 687.265L167.74 684.49L165.061 674.856ZM164.643 673.12L161.155 663.748L152.846 666.84L154.92 675.459L164.643 673.12ZM166.229 671.917L174.537 677.483L174.613 677.369L174.686 677.254L166.229 671.917ZM165.1 667.792L159.978 676.38L160.028 676.411L160.079 676.44L165.1 667.792ZM160.704 668.771L169.368 673.766L169.402 673.706L169.435 673.647L160.704 668.771ZM162.377 673.45L172.099 671.11L170.961 666.381L166.538 664.357L162.377 673.45ZM162.804 675.223L163.253 685.213L175.362 684.668L172.526 672.883L162.804 675.223ZM155.612 675.547L145.889 677.887L147.82 685.908L156.062 685.537L155.612 675.547ZM153.923 668.527L151.583 658.805L141.86 661.145L144.2 670.867L153.923 668.527ZM155.4 668.172L165.123 665.832L162.783 656.11L153.061 658.449L155.4 668.172ZM156.765 673.843L147.043 676.183L148.968 684.183L157.19 683.834L156.765 673.843ZM160.808 673.671L161.233 683.662L162.203 683.621L163.148 683.393L160.808 673.671ZM160.845 673.662L163.185 683.385L189.061 677.157L165.487 664.805L160.845 673.662ZM158.981 668.678L168.522 671.674L168.535 671.632L168.548 671.591L158.981 668.678ZM160.145 666.854L153.475 659.403L153.475 659.403L160.145 666.854ZM164.711 665.853L161.865 675.439L161.928 675.458L161.992 675.476L164.711 665.853ZM166.751 667.101L174.174 660.401L174.129 660.351L174.083 660.301L166.751 667.101ZM158.161 671.631C158.088 671.327 157.963 670.531 158.225 669.465L177.644 674.251C178.289 671.634 178.13 669.127 177.606 666.951L158.161 671.631ZM158.26 669.33C158.442 668.631 158.876 667.669 159.739 666.789L174.013 680.798C175.882 678.895 177.02 676.642 177.61 674.387L158.26 669.33ZM159.804 666.724C160.499 666.029 161.404 665.493 162.381 665.222L167.74 684.49C170.109 683.831 172.225 682.588 173.948 680.864L159.804 666.724ZM174.783 672.516L174.365 670.78L154.92 675.459L155.338 677.196L174.783 672.516ZM168.13 682.492C170.522 681.602 172.855 679.993 174.537 677.483L157.922 666.351C158.875 664.928 160.15 664.121 161.155 663.748L168.13 682.492ZM174.686 677.254C177.004 673.581 176.721 669.767 176.146 667.381L156.701 672.06C156.566 671.496 156.153 669.147 157.772 666.58L174.686 677.254ZM176.146 667.381C175.428 664.398 173.616 661.173 170.12 659.143L160.079 676.44C159.113 675.879 158.295 675.11 157.686 674.224C157.1 673.37 156.827 672.583 156.701 672.06L176.146 667.381ZM170.222 659.203C166.642 657.068 162.92 657.19 160.241 657.835L164.921 677.28C164.261 677.439 162.219 677.717 159.978 676.38L170.222 659.203ZM160.241 657.835C157.752 658.434 154.146 660.004 151.973 663.896L169.435 673.647C167.917 676.365 165.563 677.126 164.921 677.28L160.241 657.835ZM152.04 663.777C150.071 667.194 150.163 670.715 150.783 673.289L170.227 668.61C170.432 669.46 170.657 671.529 169.368 673.766L152.04 663.777ZM150.783 673.289C151.629 676.808 153.878 680.558 158.216 682.543L166.538 664.357C167.574 664.831 168.505 665.576 169.2 666.505C169.859 667.385 170.125 668.183 170.227 668.61L150.783 673.289ZM152.655 675.79L153.081 677.563L172.526 672.883L172.099 671.11L152.655 675.79ZM162.354 665.233L155.162 665.557L156.062 685.537L163.253 685.213L162.354 665.233ZM165.334 673.207L163.645 666.188L144.2 670.867L145.889 677.887L165.334 673.207ZM156.262 678.25L157.74 677.894L153.061 658.449L151.583 658.805L156.262 678.25ZM145.678 670.512L147.043 676.183L166.488 671.503L165.123 665.832L145.678 670.512ZM157.19 683.834L161.233 683.662L160.384 663.68L156.341 663.852L157.19 683.834ZM163.148 683.393L163.185 683.385L158.505 663.94L158.468 663.949L163.148 683.393ZM165.487 664.805C166.484 665.327 167.292 666.073 167.858 666.887C168.392 667.653 168.589 668.299 168.656 668.577L149.211 673.257C150.011 676.578 152.038 680.337 156.204 682.52L165.487 664.805ZM168.656 668.577C168.848 669.374 168.896 670.483 168.522 671.674L149.441 665.682C148.624 668.282 148.64 670.884 149.211 673.257L168.656 668.577ZM168.548 671.591C168.234 672.619 167.622 673.582 166.814 674.305L153.475 659.403C151.553 661.124 150.165 663.303 149.415 665.765L168.548 671.591ZM166.814 674.305C166.037 675.001 165.186 675.379 164.503 675.544L159.823 656.099C157.564 656.642 155.367 657.709 153.475 659.403L166.814 674.305ZM164.503 675.544C163.881 675.693 162.93 675.755 161.865 675.439L167.558 656.266C164.893 655.475 162.243 655.516 159.823 656.099L164.503 675.544ZM161.992 675.476C161.021 675.202 160.105 674.641 159.419 673.901L174.083 660.301C172.271 658.347 169.995 656.954 167.43 656.23L161.992 675.476ZM159.328 673.802C158.689 673.094 158.322 672.298 158.161 671.631L177.606 666.951C177.037 664.585 175.914 662.328 174.174 660.401L159.328 673.802ZM165.411 661.047L175.051 663.706L175.085 663.584L175.115 663.463L165.411 661.047ZM164.47 662.739L171.664 669.685L171.7 669.648L171.736 669.61L164.47 662.739ZM162.862 663.771L153.139 666.111L155.72 676.833L166.139 673.219L162.862 663.771ZM162.444 662.034L158.8 652.722L150.682 655.898L152.721 664.374L162.444 662.034ZM161.925 657.117L159.515 666.823L159.567 666.835L159.618 666.848L161.925 657.117ZM158.094 657.277L155.754 647.555L149.745 649.001L148.352 655.022L158.094 657.277ZM158.084 657.319L148.342 655.063L146.175 664.424L155.442 666.963L158.084 657.319ZM159.803 658.371L167.345 651.804L167.292 651.743L167.238 651.683L159.803 658.371ZM160.744 662.522L170.352 665.294L170.373 665.222L170.392 665.15L160.744 662.522ZM159.622 664.355L166.291 671.806L166.377 671.729L166.461 671.65L159.622 664.355ZM155.202 665.399L157.741 655.727L157.741 655.727L155.202 665.399ZM153.245 664.248L146.018 671.16L146.045 671.189L146.073 671.218L153.245 664.248ZM152.945 657.969L160.2 664.851L160.243 664.806L160.285 664.761L152.945 657.969ZM162.748 655.747L158.974 665.007L159.006 665.02L159.038 665.033L162.748 655.747ZM158.942 662.506L167.193 668.156L167.265 668.051L167.335 667.943L158.942 662.506ZM157.913 658.474L152.5 666.882L152.547 666.913L152.595 666.942L157.913 658.474ZM153.813 659.382L162.277 664.707L162.343 664.603L162.406 664.497L153.813 659.382ZM154.8 663.483L159.8 654.823L159.746 654.792L159.693 654.762L154.8 663.483ZM155.662 661.243C155.524 660.672 155.431 659.74 155.707 658.631L175.115 663.463C175.722 661.023 175.611 658.662 175.106 656.564L155.662 661.243ZM155.771 658.388C156.004 657.543 156.473 656.641 157.204 655.868L171.736 669.61C173.36 667.892 174.456 665.862 175.051 663.706L155.771 658.388ZM157.276 655.793C157.888 655.159 158.687 654.634 159.585 654.323L166.139 673.219C168.263 672.482 170.134 671.269 171.664 669.685L157.276 655.793ZM172.584 661.431L172.166 659.695L152.721 664.374L153.139 666.111L172.584 661.431ZM166.087 671.347C168.22 670.513 170.94 668.829 172.63 665.621C174.328 662.399 174.173 659.183 173.629 656.919L154.184 661.599C153.962 660.678 153.725 658.596 154.936 656.298C156.139 654.015 157.966 653.048 158.8 652.722L166.087 671.347ZM173.629 656.919C173.185 655.076 172.286 652.936 170.539 651.047C168.732 649.093 166.491 647.923 164.232 647.387L159.618 666.848C158.395 666.558 157.003 665.867 155.856 664.627C154.769 663.452 154.343 662.26 154.184 661.599L173.629 656.919ZM164.335 647.412C161.289 646.656 158.366 646.926 155.921 647.515L160.6 666.96C160.757 666.922 160.733 666.943 160.556 666.948C160.373 666.954 160.006 666.945 159.515 666.823L164.335 647.412ZM155.921 647.515L155.754 647.555L160.434 667L160.6 666.96L155.921 647.515ZM148.352 655.022L148.342 655.063L167.827 659.574L167.836 659.532L148.352 655.022ZM155.442 666.963C154.326 666.657 153.221 666.005 152.369 665.059L167.238 651.683C165.461 649.707 163.21 648.354 160.727 647.674L155.442 666.963ZM152.261 664.937C151.545 664.114 151.18 663.246 151.023 662.594L170.468 657.915C169.955 655.785 168.962 653.661 167.345 651.804L152.261 664.937ZM151.023 662.594C150.869 661.954 150.797 660.989 151.095 659.894L170.392 665.15C171.078 662.632 171.007 660.156 170.468 657.915L151.023 662.594ZM151.136 659.75C151.428 658.734 152.011 657.783 152.782 657.06L166.461 671.65C168.316 669.911 169.647 667.737 170.352 665.294L151.136 659.75ZM152.952 656.904C153.803 656.142 154.663 655.81 155.19 655.683L159.869 675.128C162.07 674.599 164.325 673.566 166.291 671.806L152.952 656.904ZM155.19 655.683C155.894 655.514 156.798 655.479 157.741 655.727L152.664 675.072C155.108 675.713 157.563 675.683 159.869 675.128L155.19 655.683ZM157.741 655.727C158.795 656.004 159.733 656.576 160.416 657.279L146.073 671.218C147.865 673.061 150.107 674.401 152.664 675.072L157.741 655.727ZM160.471 657.337C161.306 658.209 161.672 659.124 161.807 659.686L142.362 664.366C142.93 666.726 144.069 669.123 146.018 671.16L160.471 657.337ZM161.807 659.686C161.87 659.95 162.012 660.736 161.78 661.831C161.53 663.01 160.946 664.065 160.2 664.851L145.69 651.087C141.861 655.123 141.361 660.207 142.362 664.366L161.807 659.686ZM160.285 664.761C159.792 665.293 159.38 665.511 159.311 665.545C159.249 665.577 159.414 665.486 159.923 665.364L155.243 645.919C152.168 646.659 148.456 648.096 145.605 651.177L160.285 664.761ZM159.923 665.364C160.3 665.273 160.377 665.298 160.213 665.294C160.03 665.291 159.572 665.251 158.974 665.007L166.523 646.486C162.544 644.865 158.523 645.13 155.243 645.919L159.923 665.364ZM159.038 665.033C158.327 664.749 157.483 664.215 156.769 663.36C156.072 662.525 155.776 661.718 155.662 661.243L175.106 656.564C174.037 652.122 171.097 648.314 166.459 646.461L159.038 665.033ZM159.34 673.419C161.855 672.813 164.999 671.359 167.193 668.156L150.691 656.856C152.094 654.807 153.944 654.146 154.661 653.974L159.34 673.419ZM167.335 667.943C169.422 664.721 169.683 661.149 168.954 658.123L149.509 662.802C149.354 662.158 149.244 661.241 149.399 660.151C149.558 659.03 149.963 657.974 150.549 657.069L167.335 667.943ZM168.954 658.123C168.256 655.22 166.539 652.083 163.231 650.005L152.595 666.942C151.697 666.378 150.952 665.636 150.404 664.809C149.875 664.011 149.625 663.284 149.509 662.802L168.954 658.123ZM163.326 650.065C160.07 647.969 156.439 647.663 153.286 648.422L157.965 667.867C157.348 668.016 156.468 668.12 155.421 667.97C154.347 667.815 153.347 667.427 152.5 666.882L163.326 650.065ZM153.286 648.422C150.357 649.127 147.224 650.899 145.22 654.268L162.406 664.497C161.841 665.447 161.072 666.257 160.182 666.864C159.323 667.451 158.521 667.734 157.965 667.867L153.286 648.422ZM145.349 654.057C143.14 657.567 143.183 661.281 143.84 664.01L163.285 659.331C163.503 660.237 163.712 662.426 162.277 664.707L145.349 654.057ZM143.84 664.01C144.523 666.85 146.276 670.168 149.907 672.204L159.693 654.762C160.774 655.369 161.653 656.204 162.286 657.132C162.892 658.019 163.163 658.825 163.285 659.331L143.84 664.01ZM149.8 672.143C153.178 674.094 156.685 674.058 159.34 673.419L154.661 653.974C155.593 653.749 157.632 653.572 159.8 654.823L149.8 672.143Z" fill="#FEF9D2" mask="url(#path-8-outside-1_58_28)"/>
<mask id="path-10-outside-2_58_28" maskUnits="userSpaceOnUse" x="126.111" y="397.047" width="53.4577" height="47.4291" fill="black">
<rect fill="white" x="126.111" y="397.047" width="53.4577" height="47.4291"/>
<path d="M163.284 426.887C162.788 428.537 161.863 429.569 160.509 429.982C159.146 430.379 157.416 430.262 155.317 429.631C153.291 429.023 151.82 428.131 150.904 426.956C149.991 425.769 149.764 424.411 150.223 422.883C150.449 422.13 150.806 421.517 151.292 421.041C151.771 420.55 152.328 420.215 152.964 420.036C153.587 419.853 154.218 419.824 154.854 419.949L154.34 421.66C152.963 421.444 152.076 421.998 151.679 423.32C151.329 424.485 151.538 425.44 152.305 426.187C153.076 426.921 154.154 427.496 155.536 427.912L155.7 427.961L155.729 427.93C155.233 427.424 154.921 426.834 154.793 426.161C154.653 425.484 154.692 424.781 154.911 424.053C155.148 423.265 155.535 422.614 156.073 422.101C156.598 421.585 157.227 421.251 157.96 421.101C158.685 420.935 159.459 420.976 160.284 421.224C161.073 421.461 161.742 421.854 162.291 422.403C162.84 422.951 163.209 423.618 163.396 424.402C163.588 425.173 163.55 426.002 163.284 426.887ZM158.27 428.455C159.095 428.703 159.829 428.659 160.472 428.324C161.106 427.972 161.559 427.348 161.828 426.45C162.084 425.601 162.038 424.873 161.691 424.266C161.332 423.656 160.729 423.223 159.879 422.968C158.994 422.701 158.239 422.726 157.615 423.041C156.983 423.34 156.552 423.872 156.322 424.636C156.053 425.534 156.097 426.334 156.454 427.037C156.815 427.727 157.42 428.2 158.27 428.455ZM155.835 415.96C156.001 416.288 156.063 416.677 156.02 417.127C155.978 417.577 155.86 418.123 155.666 418.766L154.302 418.356C154.507 417.585 154.591 416.975 154.554 416.527C154.52 416.067 154.377 415.707 154.125 415.446C153.873 415.185 153.484 414.936 152.96 414.699L153.343 413.426L165.917 417.205L165.424 418.842L155.835 415.96Z"/>
</mask>
<path d="M163.284 426.887C162.788 428.537 161.863 429.569 160.509 429.982C159.146 430.379 157.416 430.262 155.317 429.631C153.291 429.023 151.82 428.131 150.904 426.956C149.991 425.769 149.764 424.411 150.223 422.883C150.449 422.13 150.806 421.517 151.292 421.041C151.771 420.55 152.328 420.215 152.964 420.036C153.587 419.853 154.218 419.824 154.854 419.949L154.34 421.66C152.963 421.444 152.076 421.998 151.679 423.32C151.329 424.485 151.538 425.44 152.305 426.187C153.076 426.921 154.154 427.496 155.536 427.912L155.7 427.961L155.729 427.93C155.233 427.424 154.921 426.834 154.793 426.161C154.653 425.484 154.692 424.781 154.911 424.053C155.148 423.265 155.535 422.614 156.073 422.101C156.598 421.585 157.227 421.251 157.96 421.101C158.685 420.935 159.459 420.976 160.284 421.224C161.073 421.461 161.742 421.854 162.291 422.403C162.84 422.951 163.209 423.618 163.396 424.402C163.588 425.173 163.55 426.002 163.284 426.887ZM158.27 428.455C159.095 428.703 159.829 428.659 160.472 428.324C161.106 427.972 161.559 427.348 161.828 426.45C162.084 425.601 162.038 424.873 161.691 424.266C161.332 423.656 160.729 423.223 159.879 422.968C158.994 422.701 158.239 422.726 157.615 423.041C156.983 423.34 156.552 423.872 156.322 424.636C156.053 425.534 156.097 426.334 156.454 427.037C156.815 427.727 157.42 428.2 158.27 428.455ZM155.835 415.96C156.001 416.288 156.063 416.677 156.02 417.127C155.978 417.577 155.86 418.123 155.666 418.766L154.302 418.356C154.507 417.585 154.591 416.975 154.554 416.527C154.52 416.067 154.377 415.707 154.125 415.446C153.873 415.185 153.484 414.936 152.96 414.699L153.343 413.426L165.917 417.205L165.424 418.842L155.835 415.96Z" fill="#D2C6AF"/>
<path d="M160.509 429.982L163.308 439.582L163.367 439.565L163.426 439.547L160.509 429.982ZM150.904 426.956L142.977 433.052L142.998 433.08L143.019 433.107L150.904 426.956ZM151.292 421.041L158.279 428.196L158.369 428.108L158.457 428.018L151.292 421.041ZM152.964 420.036L155.677 429.661L155.727 429.647L155.777 429.632L152.964 420.036ZM154.854 419.949L164.431 422.828L167.606 412.266L156.785 410.138L154.854 419.949ZM154.34 421.66L152.794 431.54L161.408 432.887L163.917 424.538L154.34 421.66ZM152.305 426.187L145.333 433.355L145.371 433.392L145.409 433.429L152.305 426.187ZM155.7 427.961L152.822 437.538L158.741 439.317L162.979 434.818L155.7 427.961ZM155.729 427.93L163.008 434.787L169.596 427.794L162.872 420.931L155.729 427.93ZM154.793 426.161L164.616 424.29L164.601 424.21L164.585 424.13L154.793 426.161ZM156.073 422.101L162.975 429.337L163.029 429.286L163.082 429.233L156.073 422.101ZM157.96 421.101L159.966 430.898L160.08 430.875L160.192 430.849L157.96 421.101ZM162.291 422.403L169.358 415.328L169.358 415.328L162.291 422.403ZM163.396 424.402L153.671 426.73L153.681 426.769L153.69 426.808L163.396 424.402ZM160.472 428.324L165.099 437.189L165.209 437.132L165.317 437.072L160.472 428.324ZM161.691 424.266L170.374 419.305L170.344 419.252L170.312 419.199L161.691 424.266ZM157.615 423.041L161.895 432.079L162.01 432.024L162.125 431.967L157.615 423.041ZM156.454 427.037L147.542 431.572L147.567 431.622L147.593 431.672L156.454 427.037ZM153.707 424.009C153.782 423.76 154.046 423.033 154.774 422.222C155.557 421.349 156.565 420.73 157.592 420.417L163.426 439.547C168.698 437.939 171.641 433.824 172.861 429.766L153.707 424.009ZM157.71 420.381C158.374 420.188 158.808 420.211 158.862 420.215C158.894 420.217 158.856 420.216 158.738 420.193C158.621 420.17 158.441 420.129 158.196 420.055L152.439 439.208C155.457 440.115 159.337 440.74 163.308 439.582L157.71 420.381ZM158.196 420.055C157.814 419.94 157.749 419.876 157.878 419.954C158.023 420.042 158.393 420.299 158.788 420.805L143.019 433.107C145.643 436.47 149.232 438.244 152.439 439.208L158.196 420.055ZM158.83 420.859C159.285 421.45 159.732 422.319 159.912 423.4C160.088 424.455 159.941 425.292 159.8 425.761L140.646 420.004C139.332 424.378 139.955 429.123 142.977 433.052L158.83 420.859ZM159.8 425.761C159.615 426.378 159.179 427.317 158.279 428.196L144.306 413.887C142.432 415.717 141.284 417.883 140.646 420.004L159.8 425.761ZM158.457 428.018C157.758 428.736 156.797 429.345 155.677 429.661L150.25 410.411C147.859 411.085 145.784 412.365 144.128 414.065L158.457 428.018ZM155.777 429.632C154.862 429.9 153.865 429.947 152.924 429.761L156.785 410.138C154.57 409.702 152.312 409.806 150.15 410.44L155.777 429.632ZM145.278 417.071L144.764 418.782L163.917 424.538L164.431 422.828L145.278 417.071ZM155.886 411.78C153.624 411.426 150.426 411.51 147.35 413.429C144.259 415.357 142.772 418.212 142.102 420.442L161.256 426.198C160.983 427.106 160.138 429.023 157.935 430.398C155.746 431.764 153.68 431.678 152.794 431.54L155.886 411.78ZM142.102 420.442C141.555 422.261 141.258 424.549 141.803 427.045C142.366 429.619 143.682 431.75 145.333 433.355L159.277 419.018C160.161 419.877 160.989 421.156 161.342 422.775C161.679 424.315 161.452 425.544 161.256 426.198L142.102 420.442ZM145.409 433.429C147.649 435.561 150.28 436.774 152.658 437.489L158.415 418.335C158.246 418.284 158.261 418.273 158.401 418.347C158.545 418.424 158.845 418.606 159.201 418.945L145.409 433.429ZM152.658 437.489L152.822 437.538L158.579 418.384L158.415 418.335L152.658 437.489ZM162.979 434.818L163.008 434.787L148.451 421.073L148.422 421.104L162.979 434.818ZM162.872 420.931C163.706 421.783 164.363 422.959 164.616 424.29L144.97 428.032C145.48 430.709 146.761 433.065 148.587 434.929L162.872 420.931ZM164.585 424.13C164.815 425.239 164.699 426.228 164.487 426.932L145.334 421.175C144.685 423.334 144.491 425.728 145.001 428.191L164.585 424.13ZM164.487 426.932C164.281 427.62 163.823 428.528 162.975 429.337L149.17 414.865C147.247 416.7 146.014 418.91 145.334 421.175L164.487 426.932ZM163.082 429.233C162.21 430.09 161.093 430.667 159.966 430.898L155.954 411.304C153.362 411.835 150.986 413.079 149.063 414.969L163.082 429.233ZM160.192 430.849C158.975 431.128 157.974 430.972 157.406 430.801L163.163 411.648C160.945 410.981 158.395 410.743 155.729 411.353L160.192 430.849ZM157.406 430.801C156.712 430.592 155.914 430.167 155.224 429.478L169.358 415.328C167.57 413.541 165.434 412.33 163.163 411.648L157.406 430.801ZM155.224 429.478C154.414 428.669 153.897 427.672 153.671 426.73L173.122 422.073C172.521 419.564 171.266 417.234 169.358 415.328L155.224 429.478ZM153.69 426.808C153.384 425.572 153.542 424.558 153.707 424.009L172.861 429.766C173.558 427.446 173.792 424.775 173.103 421.996L153.69 426.808ZM155.391 438.032C158.215 438.881 161.718 438.954 165.099 437.189L155.844 419.459C156.79 418.965 157.821 418.687 158.842 418.626C159.83 418.567 160.624 418.721 161.148 418.879L155.391 438.032ZM165.317 437.072C168.844 435.118 170.613 431.966 171.405 429.328L152.252 423.572C152.505 422.729 153.368 420.827 155.627 419.576L165.317 437.072ZM171.405 429.328C172.225 426.602 172.425 422.894 170.374 419.305L153.008 429.227C152.391 428.145 152.074 426.986 152.005 425.894C151.94 424.851 152.109 424.045 152.252 423.572L171.405 429.328ZM170.312 419.199C168.376 415.904 165.386 414.181 162.758 413.391L157.001 432.544C156.071 432.265 154.289 431.408 153.07 429.333L170.312 419.199ZM162.758 413.391C160.233 412.632 156.679 412.31 153.106 414.115L162.125 431.967C159.799 433.141 157.755 432.771 157.001 432.544L162.758 413.391ZM153.336 414.003C149.773 415.69 147.663 418.705 146.746 421.758L165.899 427.515C165.701 428.175 165.315 429.062 164.587 429.961C163.838 430.885 162.902 431.602 161.895 432.079L153.336 414.003ZM146.746 421.758C145.884 424.624 145.801 428.152 147.542 431.572L165.367 422.502C165.829 423.411 166.085 424.396 166.138 425.362C166.189 426.297 166.042 427.038 165.899 427.515L146.746 421.758ZM147.593 431.672C149.378 435.084 152.352 437.119 155.391 438.032L161.148 418.879C161.731 419.054 162.522 419.393 163.336 420.03C164.172 420.683 164.846 421.505 165.315 422.402L147.593 431.672ZM155.835 415.96L158.714 406.383L136.368 399.667L146.915 420.48L155.835 415.96ZM156.02 417.127L165.976 418.071L165.976 418.071L156.02 417.127ZM155.666 418.766L152.788 428.343L162.365 431.221L165.243 421.645L155.666 418.766ZM154.302 418.356L144.638 415.783L142.146 425.144L151.423 427.933L154.302 418.356ZM154.554 416.527L144.581 417.259L144.584 417.309L144.588 417.359L154.554 416.527ZM154.125 415.446L146.934 422.395L146.934 422.396L154.125 415.446ZM152.96 414.699L143.384 411.821L140.864 420.206L148.842 423.812L152.96 414.699ZM153.343 413.426L156.222 403.849L146.645 400.97L143.766 410.547L153.343 413.426ZM165.917 417.205L175.493 420.083L178.372 410.506L168.795 407.628L165.917 417.205ZM165.424 418.842L162.546 428.419L172.123 431.297L175.001 421.721L165.424 418.842ZM146.915 420.48C146.048 418.77 145.97 417.18 146.065 416.182L165.976 418.071C166.156 416.173 165.954 413.806 164.755 411.44L146.915 420.48ZM146.065 416.182C146.077 416.055 146.091 415.957 146.102 415.891C146.112 415.825 146.121 415.782 146.125 415.764C146.131 415.734 146.125 415.771 146.09 415.888L165.243 421.645C165.544 420.643 165.849 419.409 165.976 418.071L146.065 416.182ZM158.545 409.19L157.18 408.779L151.423 427.933L152.788 428.343L158.545 409.19ZM163.965 420.929C164.273 419.771 164.699 417.849 164.519 415.695L144.588 417.359C144.528 416.638 144.588 416.131 144.612 415.955C144.64 415.754 144.665 415.685 144.638 415.783L163.965 420.929ZM164.527 415.796C164.369 413.647 163.594 410.854 161.315 408.497L146.934 422.396C145.16 420.56 144.671 418.488 144.581 417.259L164.527 415.796ZM161.315 408.497C159.824 406.953 158.16 406.075 157.079 405.587L148.842 423.812C148.764 423.777 148.546 423.674 148.246 423.481C147.954 423.294 147.468 422.948 146.934 422.395L161.315 408.497ZM162.537 417.578L162.92 416.304L143.766 410.547L143.384 411.821L162.537 417.578ZM150.465 423.002L163.038 426.781L168.795 407.628L156.222 403.849L150.465 423.002ZM156.34 414.326L155.848 415.964L175.001 421.721L175.493 420.083L156.34 414.326ZM168.303 409.265L158.714 406.383L152.957 425.537L162.546 428.419L168.303 409.265Z" fill="#FEF9D2" mask="url(#path-10-outside-2_58_28)"/>
<mask id="path-12-outside-3_58_28" maskUnits="userSpaceOnUse" x="188.85" y="284.011" width="51.6806" height="53.4464" fill="black">
<rect fill="white" x="188.85" y="284.011" width="51.6806" height="53.4464"/>
<path d="M217.329 319.097C216.391 320.542 215.214 321.273 213.798 321.291C212.379 321.29 210.75 320.694 208.912 319.501C207.138 318.349 205.975 317.081 205.424 315.696C204.88 314.301 205.043 312.934 205.912 311.595C206.339 310.937 206.853 310.447 207.454 310.127C208.05 309.79 208.679 309.624 209.339 309.63C209.989 309.629 210.603 309.778 211.179 310.076L210.206 311.574C208.945 310.982 207.938 311.265 207.187 312.423C206.525 313.443 206.457 314.419 206.985 315.35C207.52 316.271 208.393 317.125 209.604 317.911L209.748 318.004L209.784 317.983C209.45 317.358 209.315 316.704 209.381 316.022C209.436 315.333 209.67 314.669 210.084 314.032C210.532 313.341 211.086 312.825 211.746 312.483C212.395 312.134 213.093 311.991 213.838 312.052C214.58 312.095 215.312 312.352 216.035 312.821C216.725 313.269 217.257 313.833 217.631 314.514C218.005 315.194 218.172 315.937 218.133 316.742C218.1 317.537 217.832 318.322 217.329 319.097ZM212.076 319.198C212.798 319.667 213.515 319.831 214.227 319.688C214.935 319.529 215.544 319.056 216.054 318.27C216.537 317.526 216.697 316.814 216.534 316.135C216.36 315.448 215.902 314.863 215.158 314.381C214.382 313.877 213.651 313.689 212.964 313.817C212.273 313.928 211.71 314.317 211.276 314.987C210.766 315.773 210.584 316.553 210.73 317.328C210.884 318.092 211.332 318.716 212.076 319.198ZM220.312 314.013C218.431 312.792 217.564 310.674 217.71 307.657L217.743 306.909C217.802 305.98 217.82 305.29 217.797 304.837C217.77 304.366 217.663 303.95 217.476 303.587C217.278 303.217 216.945 302.88 216.478 302.576C215.904 302.204 215.324 302.039 214.738 302.081C214.152 302.124 213.61 302.527 213.114 303.292C212.534 304.185 212.379 304.982 212.648 305.685C212.923 306.377 213.486 306.999 214.336 307.551L213.363 309.049C212.163 308.27 211.402 307.301 211.083 306.142C210.752 304.976 211.011 303.74 211.859 302.433C212.273 301.795 212.785 301.297 213.396 300.938C213.996 300.573 214.649 300.392 215.355 300.398C216.061 300.403 216.754 300.627 217.434 301.068C218.093 301.496 218.572 302.025 218.871 302.658C219.16 303.283 219.33 303.929 219.38 304.596C219.42 305.256 219.41 306.073 219.352 307.047C219.288 308.169 219.296 309.064 219.374 309.735C219.46 310.394 219.712 310.958 220.133 311.427L220.165 311.448L223.992 305.552L225.267 306.379L220.312 314.013Z"/>
</mask>
<path d="M217.329 319.097C216.391 320.542 215.214 321.273 213.798 321.291C212.379 321.29 210.75 320.694 208.912 319.501C207.138 318.349 205.975 317.081 205.424 315.696C204.88 314.301 205.043 312.934 205.912 311.595C206.339 310.937 206.853 310.447 207.454 310.127C208.05 309.79 208.679 309.624 209.339 309.63C209.989 309.629 210.603 309.778 211.179 310.076L210.206 311.574C208.945 310.982 207.938 311.265 207.187 312.423C206.525 313.443 206.457 314.419 206.985 315.35C207.52 316.271 208.393 317.125 209.604 317.911L209.748 318.004L209.784 317.983C209.45 317.358 209.315 316.704 209.381 316.022C209.436 315.333 209.67 314.669 210.084 314.032C210.532 313.341 211.086 312.825 211.746 312.483C212.395 312.134 213.093 311.991 213.838 312.052C214.58 312.095 215.312 312.352 216.035 312.821C216.725 313.269 217.257 313.833 217.631 314.514C218.005 315.194 218.172 315.937 218.133 316.742C218.1 317.537 217.832 318.322 217.329 319.097ZM212.076 319.198C212.798 319.667 213.515 319.831 214.227 319.688C214.935 319.529 215.544 319.056 216.054 318.27C216.537 317.526 216.697 316.814 216.534 316.135C216.36 315.448 215.902 314.863 215.158 314.381C214.382 313.877 213.651 313.689 212.964 313.817C212.273 313.928 211.71 314.317 211.276 314.987C210.766 315.773 210.584 316.553 210.73 317.328C210.884 318.092 211.332 318.716 212.076 319.198ZM220.312 314.013C218.431 312.792 217.564 310.674 217.71 307.657L217.743 306.909C217.802 305.98 217.82 305.29 217.797 304.837C217.77 304.366 217.663 303.95 217.476 303.587C217.278 303.217 216.945 302.88 216.478 302.576C215.904 302.204 215.324 302.039 214.738 302.081C214.152 302.124 213.61 302.527 213.114 303.292C212.534 304.185 212.379 304.982 212.648 305.685C212.923 306.377 213.486 306.999 214.336 307.551L213.363 309.049C212.163 308.27 211.402 307.301 211.083 306.142C210.752 304.976 211.011 303.74 211.859 302.433C212.273 301.795 212.785 301.297 213.396 300.938C213.996 300.573 214.649 300.392 215.355 300.398C216.061 300.403 216.754 300.627 217.434 301.068C218.093 301.496 218.572 302.025 218.871 302.658C219.16 303.283 219.33 303.929 219.38 304.596C219.42 305.256 219.41 306.073 219.352 307.047C219.288 308.169 219.296 309.064 219.374 309.735C219.46 310.394 219.712 310.958 220.133 311.427L220.165 311.448L223.992 305.552L225.267 306.379L220.312 314.013Z" fill="#D2C6AF"/>
<path d="M213.798 321.291L213.797 331.291L213.859 331.291L213.921 331.29L213.798 321.291ZM205.424 315.696L196.108 319.329L196.12 319.362L196.133 319.394L205.424 315.696ZM207.454 310.127L212.158 318.952L212.268 318.893L212.378 318.831L207.454 310.127ZM209.339 309.63L209.249 319.629L209.302 319.63L209.354 319.63L209.339 309.63ZM211.179 310.076L219.567 315.521L225.571 306.271L215.779 301.197L211.179 310.076ZM210.206 311.574L205.956 320.626L213.848 324.332L218.594 317.019L210.206 311.574ZM206.985 315.35L198.285 320.28L198.311 320.326L198.337 320.372L206.985 315.35ZM209.748 318.004L204.303 326.392L209.487 329.757L214.815 326.625L209.748 318.004ZM209.784 317.983L214.852 326.604L223.135 321.735L218.601 313.264L209.784 317.983ZM209.381 316.022L219.335 316.976L219.343 316.895L219.349 316.814L209.381 316.022ZM211.746 312.483L216.346 321.362L216.412 321.328L216.478 321.292L211.746 312.483ZM213.838 312.052L213.021 322.018L213.136 322.028L213.251 322.034L213.838 312.052ZM217.631 314.514L226.396 309.7L226.396 309.7L217.631 314.514ZM218.133 316.742L208.145 316.254L208.143 316.294L208.141 316.334L218.133 316.742ZM214.227 319.688L216.187 329.494L216.308 329.47L216.428 329.443L214.227 319.688ZM216.534 316.135L226.258 313.803L226.244 313.744L226.229 313.684L216.534 316.135ZM212.964 313.817L214.541 323.692L214.668 323.672L214.794 323.648L212.964 313.817ZM210.73 317.328L200.904 319.186L200.915 319.242L200.926 319.297L210.73 317.328ZM208.941 313.652C209.082 313.435 209.54 312.81 210.465 312.235C211.461 311.616 212.602 311.304 213.676 311.291L213.921 331.29C219.432 331.222 223.41 328.096 225.717 324.542L208.941 313.652ZM213.8 311.291C214.491 311.291 214.902 311.435 214.952 311.453C214.982 311.464 214.946 311.453 214.839 311.398C214.733 311.343 214.572 311.253 214.357 311.113L203.468 327.888C206.111 329.604 209.661 331.29 213.797 331.291L213.8 311.291ZM214.357 311.113C214.023 310.896 213.978 310.816 214.081 310.928C214.195 311.052 214.478 311.403 214.716 311.999L196.133 319.394C197.71 323.357 200.659 326.065 203.468 327.888L214.357 311.113ZM214.741 312.063C215.012 312.757 215.197 313.717 215.068 314.805C214.942 315.867 214.566 316.629 214.299 317.04L197.524 306.151C195.037 309.981 194.307 314.711 196.108 319.329L214.741 312.063ZM214.299 317.04C213.949 317.58 213.268 318.36 212.158 318.952L202.75 301.303C200.438 302.535 198.73 304.293 197.524 306.151L214.299 317.04ZM212.378 318.831C211.506 319.324 210.413 319.64 209.249 319.629L209.43 299.63C206.945 299.608 204.595 300.255 202.529 301.424L212.378 318.831ZM209.354 319.63C208.4 319.631 207.43 319.397 206.579 318.955L215.779 301.197C213.775 300.159 211.579 299.627 209.325 299.63L209.354 319.63ZM202.791 304.632L201.819 306.13L218.594 317.019L219.567 315.521L202.791 304.632ZM214.457 302.523C212.384 301.549 209.291 300.734 205.8 301.715C202.293 302.701 200.067 305.025 198.799 306.978L215.574 317.868C215.058 318.663 213.711 320.267 211.211 320.969C208.727 321.667 206.768 321.007 205.956 320.626L214.457 302.523ZM198.799 306.978C197.765 308.572 196.839 310.685 196.663 313.234C196.482 315.863 197.15 318.277 198.285 320.28L215.686 310.42C216.293 311.492 216.73 312.952 216.616 314.606C216.508 316.178 215.947 317.294 215.574 317.868L198.799 306.978ZM198.337 320.372C199.89 323.046 202.077 324.947 204.16 326.299L215.049 309.523C214.901 309.427 214.919 309.42 215.032 309.531C215.149 309.646 215.386 309.904 215.633 310.329L198.337 320.372ZM204.16 326.299L204.303 326.392L215.192 309.616L215.049 309.523L204.16 326.299ZM214.815 326.625L214.852 326.604L204.717 309.362L204.68 309.383L214.815 326.625ZM218.601 313.264C219.163 314.315 219.464 315.628 219.335 316.976L199.427 315.068C199.166 317.781 199.737 320.401 200.968 322.701L218.601 313.264ZM219.349 316.814C219.26 317.943 218.872 318.86 218.472 319.476L201.696 308.587C200.468 310.478 199.612 312.722 199.412 315.229L219.349 316.814ZM218.472 319.476C218.08 320.079 217.387 320.823 216.346 321.362L207.146 303.604C204.786 304.827 202.984 306.603 201.696 308.587L218.472 319.476ZM216.478 321.292C215.401 321.871 214.167 322.112 213.021 322.018L214.655 302.085C212.018 301.869 209.389 302.397 207.014 303.674L216.478 321.292ZM213.251 322.034C212.005 321.961 211.088 321.531 210.59 321.208L221.479 304.433C219.537 303.172 217.155 302.229 214.425 302.069L213.251 322.034ZM210.59 321.208C209.982 320.814 209.335 320.182 208.866 319.327L226.396 309.7C225.18 307.485 223.468 305.724 221.479 304.433L210.59 321.208ZM208.866 319.327C208.315 318.324 208.097 317.221 208.145 316.254L228.121 317.23C228.247 314.653 227.695 312.065 226.396 309.7L208.866 319.327ZM208.141 316.334C208.193 315.062 208.629 314.133 208.941 313.652L225.717 324.542C227.036 322.51 228.008 320.011 228.124 317.15L208.141 316.334ZM206.631 327.586C209.104 329.191 212.446 330.242 216.187 329.494L212.267 309.882C213.312 309.673 214.38 309.695 215.377 309.923C216.343 310.142 217.061 310.512 217.521 310.811L206.631 327.586ZM216.428 329.443C220.362 328.555 222.942 326.024 224.442 323.714L207.666 312.825C208.145 312.087 209.507 310.502 212.025 309.934L216.428 329.443ZM224.442 323.714C225.992 321.326 227.222 317.823 226.258 313.803L206.809 318.466C206.519 317.254 206.539 316.053 206.779 314.985C207.008 313.965 207.397 313.24 207.666 312.825L224.442 323.714ZM226.229 313.684C225.292 309.978 222.904 307.487 220.603 305.993L209.713 322.768C208.899 322.24 207.428 320.918 206.839 318.585L226.229 313.684ZM220.603 305.993C218.391 304.557 215.07 303.254 211.134 303.986L214.794 323.648C212.232 324.125 210.374 323.197 209.713 322.768L220.603 305.993ZM211.386 303.942C207.494 304.564 204.624 306.868 202.888 309.542L219.664 320.432C219.288 321.01 218.669 321.754 217.719 322.412C216.741 323.09 215.642 323.516 214.541 323.692L211.386 303.942ZM202.888 309.542C201.259 312.052 200.191 315.416 200.904 319.186L220.556 315.47C220.746 316.473 220.715 317.49 220.496 318.432C220.283 319.344 219.935 320.014 219.664 320.432L202.888 309.542ZM200.926 319.297C201.684 323.072 203.969 325.858 206.631 327.586L217.521 310.811C218.031 311.142 218.695 311.689 219.299 312.528C219.919 313.39 220.335 314.367 220.535 315.36L200.926 319.297ZM220.312 314.013L214.867 322.401L223.255 327.845L228.7 319.458L220.312 314.013ZM217.71 307.657L227.698 308.14L227.699 308.119L227.7 308.098L217.71 307.657ZM217.743 306.909L207.763 306.275L207.757 306.372L207.753 306.469L217.743 306.909ZM217.797 304.837L227.784 304.327L227.782 304.297L227.78 304.267L217.797 304.837ZM217.476 303.587L226.364 299.005L226.33 298.939L226.295 298.873L217.476 303.587ZM212.648 305.685L203.306 309.255L203.331 309.319L203.356 309.383L212.648 305.685ZM214.336 307.551L222.724 312.996L228.168 304.608L219.78 299.163L214.336 307.551ZM213.363 309.049L207.919 317.437L216.306 322.882L221.751 314.494L213.363 309.049ZM211.083 306.142L220.722 303.481L220.713 303.448L220.704 303.415L211.083 306.142ZM213.396 300.938L218.463 309.559L218.533 309.518L218.601 309.476L213.396 300.938ZM215.355 300.398L215.431 290.398L215.431 290.398L215.355 300.398ZM218.871 302.658L227.95 298.466L227.93 298.422L227.909 298.378L218.871 302.658ZM219.38 304.596L229.362 303.996L229.357 303.92L229.351 303.844L219.38 304.596ZM219.352 307.047L209.37 306.449L209.369 306.465L209.368 306.481L219.352 307.047ZM219.374 309.735L209.442 310.898L209.449 310.958L209.457 311.018L219.374 309.735ZM220.133 311.427L212.685 318.1L213.572 319.091L214.688 319.815L220.133 311.427ZM220.165 311.448L214.72 319.836L223.108 325.281L228.552 316.893L220.165 311.448ZM223.992 305.552L229.437 297.164L221.049 291.719L215.604 300.107L223.992 305.552ZM225.267 306.379L233.655 311.824L239.1 303.436L230.712 297.991L225.267 306.379ZM225.757 305.625C226.113 305.856 226.482 306.173 226.813 306.575C227.143 306.975 227.365 307.376 227.505 307.719C227.773 308.373 227.674 308.633 227.698 308.14L207.721 307.175C207.471 312.349 208.99 318.586 214.867 322.401L225.757 305.625ZM227.7 308.098L227.733 307.349L207.753 306.469L207.72 307.217L227.7 308.098ZM227.723 307.542C227.786 306.541 227.837 305.379 227.784 304.327L207.809 305.347C207.803 305.222 207.809 305.229 207.804 305.436C207.799 305.622 207.787 305.896 207.763 306.275L227.723 307.542ZM227.78 304.267C227.686 302.611 227.285 300.791 226.364 299.005L208.587 308.168C208.04 307.108 207.854 306.122 207.813 305.407L227.78 304.267ZM226.295 298.873C225.081 296.603 223.358 295.121 221.922 294.189L211.033 310.964C210.532 310.639 209.474 309.83 208.656 308.301L226.295 298.873ZM221.922 294.189C219.832 292.832 217.12 291.883 214.018 292.107L215.458 312.055C213.528 312.195 211.975 311.576 211.033 310.964L221.922 294.189ZM214.018 292.107C208.891 292.477 205.968 295.934 204.726 297.847L221.501 308.737C221.253 309.12 219.412 311.77 215.458 312.055L214.018 292.107ZM204.726 297.847C203.175 300.237 201.473 304.457 203.306 309.255L221.989 302.116C222.575 303.651 222.628 305.187 222.378 306.471C222.148 307.654 221.705 308.424 221.501 308.737L204.726 297.847ZM203.356 309.383C204.629 312.581 206.917 314.657 208.891 315.939L219.78 299.163C220.055 299.341 221.217 300.173 221.939 301.988L203.356 309.383ZM205.948 302.107L204.975 303.605L221.751 314.494L222.724 312.996L205.948 302.107ZM218.808 300.661C218.985 300.777 219.361 301.056 219.761 301.566C220.177 302.097 220.521 302.753 220.722 303.481L201.443 308.802C202.533 312.753 205.078 315.593 207.919 317.437L218.808 300.661ZM220.704 303.415C220.998 304.454 221.004 305.495 220.817 306.39C220.642 307.225 220.344 307.729 220.247 307.877L203.472 296.988C201.533 299.975 200.133 304.181 201.462 308.869L220.704 303.415ZM220.247 307.877C219.879 308.444 219.288 309.074 218.463 309.559L208.328 292.317C206.283 293.52 204.667 295.146 203.472 296.988L220.247 307.877ZM218.601 309.476C217.602 310.086 216.424 310.406 215.278 310.398L215.431 290.398C212.873 290.379 210.389 291.059 208.19 292.4L218.601 309.476ZM215.278 310.398C213.809 310.386 212.667 309.895 211.989 309.456L222.879 292.68C220.842 291.358 218.313 290.42 215.431 290.398L215.278 310.398ZM211.989 309.456C211.289 309.001 210.422 308.18 209.833 306.937L227.909 298.378C226.722 295.871 224.897 293.99 222.879 292.68L211.989 309.456ZM209.792 306.85C209.596 306.424 209.45 305.908 209.408 305.349L229.351 303.844C229.209 301.951 228.724 300.142 227.95 298.466L209.792 306.85ZM209.398 305.197C209.405 305.319 209.414 305.706 209.37 306.449L229.334 307.645C229.406 306.44 229.434 305.194 229.362 303.996L209.398 305.197ZM209.368 306.481C209.29 307.854 209.267 309.402 209.442 310.898L229.306 308.571C229.32 308.689 229.311 308.673 229.309 308.477C229.308 308.291 229.313 308.009 229.336 307.613L209.368 306.481ZM209.457 311.018C209.787 313.564 210.838 316.039 212.685 318.1L227.581 304.755C228.587 305.877 229.133 307.223 229.292 308.451L209.457 311.018ZM214.688 319.815L214.72 319.836L225.609 303.06L225.577 303.04L214.688 319.815ZM228.552 316.893L232.38 310.996L215.604 300.107L211.777 306.003L228.552 316.893ZM218.548 313.939L219.823 314.767L230.712 297.991L229.437 297.164L218.548 313.939ZM216.879 300.934L211.924 308.568L228.7 319.458L233.655 311.824L216.879 300.934Z" fill="#FEF9D2" mask="url(#path-12-outside-3_58_28)"/>
<mask id="path-14-outside-4_58_28" maskUnits="userSpaceOnUse" x="187.912" y="735.613" width="60.8476" height="60.6227" fill="black">
<rect fill="white" x="187.912" y="735.613" width="60.8476" height="60.6227"/>
<path d="M222.902 768.375C223.466 769.156 223.807 769.941 223.925 770.731C224.032 771.529 223.95 772.259 223.68 772.923C223.4 773.595 222.974 774.152 222.404 774.596L221.358 773.148C221.901 772.646 222.238 772.074 222.369 771.433C222.482 770.789 222.264 770.087 221.715 769.327C221.173 768.578 220.521 768.151 219.758 768.046C218.987 767.931 218.181 768.177 217.339 768.785C216.569 769.342 216.143 769.954 216.063 770.621C215.972 771.296 216.187 771.993 216.706 772.712C217.448 773.738 218.342 774.272 219.387 774.314L220.456 775.792L213.925 778.823L209.697 772.97L210.929 772.08L214.345 776.808L218.02 775.114L218.051 775.092C216.978 774.992 216.041 774.387 215.24 773.278C214.766 772.621 214.497 771.925 214.434 771.189C214.364 770.443 214.492 769.733 214.818 769.06C215.144 768.387 215.636 767.813 216.293 767.338C217.042 766.796 217.832 766.484 218.662 766.4C219.485 766.305 220.272 766.432 221.023 766.78C221.764 767.135 222.391 767.667 222.902 768.375ZM216.412 759.392C217.272 760.583 217.698 761.745 217.687 762.877C217.66 764.007 217.127 764.946 216.09 765.695C215.413 766.185 214.739 766.398 214.068 766.336C213.398 766.273 212.714 766.04 212.017 765.638L211.986 765.66C212.173 766.978 211.758 768.005 210.742 768.739C209.838 769.392 208.904 769.591 207.938 769.335C206.954 769.077 206.088 768.429 205.339 767.392C204.589 766.355 204.25 765.334 204.321 764.33C204.375 763.322 204.853 762.492 205.757 761.839C206.763 761.113 207.868 761.041 209.071 761.625L209.102 761.603C208.939 760.814 208.932 760.092 209.083 759.436C209.235 758.78 209.649 758.207 210.326 757.718C211.363 756.968 212.426 756.763 213.515 757.102C214.586 757.438 215.551 758.201 216.412 759.392ZM214.998 764.281C215.655 763.806 215.999 763.222 216.029 762.528C216.041 761.832 215.758 761.083 215.18 760.282C214.601 759.481 213.983 758.982 213.325 758.786C212.65 758.586 211.983 758.724 211.326 759.199C210.69 759.659 210.36 760.24 210.337 760.944C210.307 761.638 210.581 762.385 211.16 763.186C211.739 763.987 212.366 764.487 213.041 764.687C213.709 764.876 214.362 764.741 214.998 764.281ZM209.696 767.291C210.815 766.483 210.892 765.411 209.928 764.076C208.964 762.742 207.922 762.479 206.803 763.287C206.238 763.695 205.943 764.174 205.918 764.723C205.893 765.273 206.111 765.866 206.571 766.502C207.031 767.139 207.525 767.531 208.055 767.68C208.584 767.829 209.131 767.699 209.696 767.291Z"/>
</mask>
<path d="M222.902 768.375C223.466 769.156 223.807 769.941 223.925 770.731C224.032 771.529 223.95 772.259 223.68 772.923C223.4 773.595 222.974 774.152 222.404 774.596L221.358 773.148C221.901 772.646 222.238 772.074 222.369 771.433C222.482 770.789 222.264 770.087 221.715 769.327C221.173 768.578 220.521 768.151 219.758 768.046C218.987 767.931 218.181 768.177 217.339 768.785C216.569 769.342 216.143 769.954 216.063 770.621C215.972 771.296 216.187 771.993 216.706 772.712C217.448 773.738 218.342 774.272 219.387 774.314L220.456 775.792L213.925 778.823L209.697 772.97L210.929 772.08L214.345 776.808L218.02 775.114L218.051 775.092C216.978 774.992 216.041 774.387 215.24 773.278C214.766 772.621 214.497 771.925 214.434 771.189C214.364 770.443 214.492 769.733 214.818 769.06C215.144 768.387 215.636 767.813 216.293 767.338C217.042 766.796 217.832 766.484 218.662 766.4C219.485 766.305 220.272 766.432 221.023 766.78C221.764 767.135 222.391 767.667 222.902 768.375ZM216.412 759.392C217.272 760.583 217.698 761.745 217.687 762.877C217.66 764.007 217.127 764.946 216.09 765.695C215.413 766.185 214.739 766.398 214.068 766.336C213.398 766.273 212.714 766.04 212.017 765.638L211.986 765.66C212.173 766.978 211.758 768.005 210.742 768.739C209.838 769.392 208.904 769.591 207.938 769.335C206.954 769.077 206.088 768.429 205.339 767.392C204.589 766.355 204.25 765.334 204.321 764.33C204.375 763.322 204.853 762.492 205.757 761.839C206.763 761.113 207.868 761.041 209.071 761.625L209.102 761.603C208.939 760.814 208.932 760.092 209.083 759.436C209.235 758.78 209.649 758.207 210.326 757.718C211.363 756.968 212.426 756.763 213.515 757.102C214.586 757.438 215.551 758.201 216.412 759.392ZM214.998 764.281C215.655 763.806 215.999 763.222 216.029 762.528C216.041 761.832 215.758 761.083 215.18 760.282C214.601 759.481 213.983 758.982 213.325 758.786C212.65 758.586 211.983 758.724 211.326 759.199C210.69 759.659 210.36 760.24 210.337 760.944C210.307 761.638 210.581 762.385 211.16 763.186C211.739 763.987 212.366 764.487 213.041 764.687C213.709 764.876 214.362 764.741 214.998 764.281ZM209.696 767.291C210.815 766.483 210.892 765.411 209.928 764.076C208.964 762.742 207.922 762.479 206.803 763.287C206.238 763.695 205.943 764.174 205.918 764.723C205.893 765.273 206.111 765.866 206.571 766.502C207.031 767.139 207.525 767.531 208.055 767.68C208.584 767.829 209.131 767.699 209.696 767.291Z" fill="#D2C6AF"/>
<path d="M223.925 770.731L233.835 769.396L233.826 769.327L233.815 769.258L223.925 770.731ZM223.68 772.923L232.907 776.779L232.925 776.736L232.942 776.693L223.68 772.923ZM222.404 774.596L214.298 780.452L220.363 788.847L228.541 782.491L222.404 774.596ZM221.358 773.148L214.572 765.802L208.06 771.818L213.252 779.004L221.358 773.148ZM222.369 771.433L232.168 773.428L232.195 773.293L232.219 773.159L222.369 771.433ZM219.758 768.046L218.281 777.936L218.339 777.945L218.397 777.953L219.758 768.046ZM216.063 770.621L225.974 771.952L225.983 771.884L225.991 771.816L216.063 770.621ZM219.387 774.314L227.493 768.458L224.644 764.514L219.783 764.322L219.387 774.314ZM220.456 775.792L224.665 784.863L235.66 779.761L228.561 769.936L220.456 775.792ZM213.925 778.823L205.819 784.679L210.651 791.366L218.135 787.894L213.925 778.823ZM209.697 772.97L203.841 764.865L195.735 770.721L201.591 778.827L209.697 772.97ZM210.929 772.08L219.035 766.224L213.178 758.118L205.073 763.975L210.929 772.08ZM214.345 776.808L206.239 782.665L211.058 789.335L218.531 785.89L214.345 776.808ZM218.02 775.114L222.206 784.196L223.089 783.789L223.876 783.22L218.02 775.114ZM218.051 775.092L223.907 783.198L245.48 767.611L218.981 765.135L218.051 775.092ZM214.434 771.189L224.398 770.337L224.394 770.294L224.39 770.251L214.434 771.189ZM214.818 769.06L205.818 764.699L205.818 764.699L214.818 769.06ZM218.662 766.4L219.669 776.349L219.735 776.342L219.801 776.334L218.662 766.4ZM221.023 766.78L225.346 757.762L225.285 757.733L225.224 757.705L221.023 766.78ZM214.797 774.232C214.614 773.979 214.195 773.29 214.034 772.204L233.815 769.258C233.418 766.592 232.319 764.333 231.008 762.519L214.797 774.232ZM214.014 772.066C213.918 771.35 213.953 770.296 214.418 769.154L232.942 776.693C233.948 774.223 234.146 771.707 233.835 769.396L214.014 772.066ZM214.453 769.068C214.832 768.162 215.466 767.323 216.267 766.7L228.541 782.491C230.483 780.982 231.967 779.028 232.907 776.779L214.453 769.068ZM230.51 768.739L229.464 767.292L213.252 779.004L214.298 780.452L230.51 768.739ZM228.143 780.494C230.018 778.762 231.565 776.388 232.168 773.428L212.57 769.438C212.911 767.76 213.785 766.53 214.572 765.802L228.143 780.494ZM232.219 773.159C232.968 768.881 231.258 765.461 229.821 763.471L213.609 775.184C213.269 774.713 211.995 772.697 212.519 769.707L232.219 773.159ZM229.821 763.471C228.024 760.984 225.122 758.689 221.118 758.139L218.397 777.953C217.291 777.801 216.241 777.4 215.342 776.811C214.475 776.244 213.924 775.619 213.609 775.184L229.821 763.471ZM221.235 758.155C217.112 757.54 213.716 759.066 211.482 760.68L223.195 776.891C222.645 777.289 220.861 778.321 218.281 777.936L221.235 758.155ZM211.482 760.68C209.407 762.179 206.667 765 206.135 769.427L225.991 771.816C225.619 774.907 223.73 776.505 223.195 776.891L211.482 760.68ZM206.152 769.291C205.627 773.199 207.049 776.421 208.6 778.568L224.812 766.855C225.324 767.564 226.318 769.393 225.974 771.952L206.152 769.291ZM208.6 778.568C210.72 781.502 214.224 784.117 218.991 784.306L219.783 764.322C220.922 764.367 222.066 764.703 223.062 765.298C224.006 765.862 224.555 766.5 224.812 766.855L208.6 778.568ZM211.282 780.17L212.35 781.649L228.561 769.936L227.493 768.458L211.282 780.17ZM216.246 766.722L209.716 769.752L218.135 787.894L224.665 784.863L216.246 766.722ZM222.031 772.966L217.803 767.114L201.591 778.827L205.819 784.679L222.031 772.966ZM215.553 781.076L216.785 780.186L205.073 763.975L203.841 764.865L215.553 781.076ZM202.823 777.937L206.239 782.665L222.451 770.952L219.035 766.224L202.823 777.937ZM218.531 785.89L222.206 784.196L213.834 766.033L210.159 767.727L218.531 785.89ZM223.876 783.22L223.907 783.198L212.194 766.986L212.164 767.009L223.876 783.22ZM218.981 765.135C220.102 765.24 221.133 765.623 221.966 766.161C222.75 766.667 223.178 767.19 223.346 767.422L207.135 779.135C209.135 781.903 212.438 784.611 217.121 785.049L218.981 765.135ZM223.346 767.422C223.826 768.086 224.291 769.094 224.398 770.337L204.47 772.04C204.702 774.756 205.705 777.156 207.135 779.135L223.346 767.422ZM224.39 770.251C224.491 771.321 224.29 772.445 223.817 773.42L205.818 764.699C204.693 767.021 204.236 769.564 204.478 772.127L224.39 770.251ZM223.817 773.42C223.362 774.359 222.718 775.032 222.149 775.444L210.436 759.232C208.553 760.593 206.926 762.414 205.818 764.699L223.817 773.42ZM222.149 775.444C221.631 775.818 220.774 776.237 219.669 776.349L217.655 756.45C214.89 756.73 212.453 757.775 210.436 759.232L222.149 775.444ZM219.801 776.334C218.798 776.449 217.738 776.279 216.822 775.855L225.224 757.705C222.806 756.586 220.171 756.161 217.523 756.465L219.801 776.334ZM216.7 775.797C215.841 775.385 215.198 774.788 214.797 774.232L231.008 762.519C229.583 760.546 227.687 758.885 225.346 757.762L216.7 775.797ZM217.687 762.877L227.684 763.123L227.686 763.044L227.687 762.966L217.687 762.877ZM214.068 766.336L213.138 776.292L213.138 776.292L214.068 766.336ZM212.017 765.638L217.018 756.978L211.41 753.739L206.161 757.532L212.017 765.638ZM211.986 765.66L206.13 757.554L201.239 761.088L202.085 767.063L211.986 765.66ZM207.938 769.335L210.494 759.667L210.486 759.665L210.477 759.663L207.938 769.335ZM204.321 764.33L214.296 765.036L214.303 764.948L214.307 764.86L204.321 764.33ZM209.071 761.625L204.705 770.621L210.082 773.231L214.927 769.731L209.071 761.625ZM209.102 761.603L214.958 769.708L220.207 765.916L218.894 759.574L209.102 761.603ZM209.083 759.436L218.828 761.68L218.828 761.68L209.083 759.436ZM213.515 757.102L216.507 747.56L216.496 747.556L216.486 747.553L213.515 757.102ZM216.029 762.528L226.02 762.962L226.025 762.834L226.027 762.707L216.029 762.528ZM213.325 758.786L216.19 749.205L216.174 749.2L216.158 749.195L213.325 758.786ZM210.337 760.944L220.328 761.378L220.33 761.322L220.332 761.267L210.337 760.944ZM213.041 764.687L210.208 774.277L210.262 774.293L210.315 774.308L213.041 764.687ZM205.918 764.723L195.929 764.269L195.929 764.269L205.918 764.723ZM208.055 767.68L205.349 777.307L205.349 777.307L208.055 767.68ZM208.306 765.248C208.289 765.225 207.674 764.346 207.688 762.788L227.687 762.966C227.721 759.143 226.256 755.941 224.518 753.536L208.306 765.248ZM207.69 762.631C207.715 761.631 207.984 760.527 208.567 759.498C209.129 758.508 209.8 757.903 210.234 757.589L221.947 773.801C225.134 771.498 227.569 767.818 227.684 763.123L207.69 762.631ZM210.234 757.589C211.027 757.016 212.714 756.166 214.999 756.379L213.138 776.292C216.763 776.631 219.798 775.353 221.947 773.801L210.234 757.589ZM214.999 756.379C216.016 756.474 216.708 756.799 217.018 756.978L207.016 774.297C208.72 775.282 210.78 776.072 213.138 776.292L214.999 756.379ZM206.161 757.532L206.13 757.554L217.843 773.766L217.873 773.743L206.161 757.532ZM202.085 767.063C201.982 766.333 201.97 765.091 202.544 763.671C203.132 762.216 204.076 761.218 204.885 760.633L216.598 776.845C218.424 775.525 220.083 773.648 221.087 771.166C222.075 768.719 222.178 766.305 221.887 764.257L202.085 767.063ZM204.885 760.633C205.376 760.279 206.181 759.831 207.284 759.596C208.42 759.355 209.533 759.413 210.494 759.667L205.381 779.003C209.603 780.119 213.584 779.023 216.598 776.845L204.885 760.633ZM210.477 759.663C212.264 760.132 213.195 761.191 213.444 761.536L197.233 773.249C198.98 775.667 201.644 778.022 205.398 779.007L210.477 759.663ZM213.444 761.536C213.688 761.874 214.432 763.127 214.296 765.036L194.346 763.624C194.069 767.542 195.49 770.837 197.233 773.249L213.444 761.536ZM214.307 764.86C214.255 765.842 213.972 766.925 213.384 767.945C212.812 768.938 212.121 769.578 211.613 769.945L199.9 753.734C196.838 755.946 194.567 759.43 194.335 763.8L214.307 764.86ZM211.613 769.945C210.781 770.546 209.534 771.12 207.986 771.22C206.484 771.317 205.337 770.928 204.705 770.621L213.437 752.628C211.601 751.738 209.3 751.093 206.694 751.262C204.042 751.433 201.739 752.406 199.9 753.734L211.613 769.945ZM214.927 769.731L214.958 769.708L203.245 753.497L203.215 753.519L214.927 769.731ZM218.894 759.574C218.966 759.925 219.058 760.684 218.828 761.68L199.338 757.192C198.807 759.5 198.911 761.704 199.31 763.631L218.894 759.574ZM218.828 761.68C218.314 763.916 216.976 765.25 216.183 765.823L204.47 749.612C202.322 751.164 200.155 753.644 199.338 757.192L218.828 761.68ZM216.183 765.823C215.734 766.147 214.932 766.601 213.798 766.82C212.623 767.047 211.488 766.944 210.544 766.65L216.486 747.553C211.994 746.156 207.701 747.278 204.47 749.612L216.183 765.823ZM210.522 766.643C208.98 766.16 208.318 765.265 208.306 765.248L224.518 753.536C222.784 751.137 220.191 748.715 216.507 747.56L210.522 766.643ZM220.855 772.387C223.524 770.458 225.834 767.242 226.02 762.962L206.038 762.095C206.092 760.849 206.451 759.57 207.129 758.417C207.782 757.307 208.565 756.592 209.142 756.175L220.855 772.387ZM226.027 762.707C226.092 759.108 224.617 756.268 223.285 754.426L207.074 766.138C206.9 765.898 205.991 764.555 206.031 762.35L226.027 762.707ZM223.285 754.426C221.966 752.599 219.706 750.256 216.19 749.205L210.46 768.367C208.26 767.709 207.237 766.363 207.074 766.138L223.285 754.426ZM216.158 749.195C212.039 747.979 208.208 749.115 205.47 751.093L217.183 767.304C216.583 767.738 215.63 768.267 214.341 768.533C213.006 768.808 211.674 768.725 210.492 768.376L216.158 749.195ZM205.47 751.093C202.653 753.128 200.477 756.437 200.343 760.622L220.332 761.267C220.294 762.444 219.978 763.716 219.303 764.909C218.646 766.068 217.829 766.837 217.183 767.304L205.47 751.093ZM200.347 760.511C200.185 764.233 201.702 767.17 203.054 769.043L219.266 757.33C219.461 757.6 220.429 759.043 220.328 761.378L200.347 760.511ZM203.054 769.043C204.418 770.93 206.703 773.242 210.208 774.277L215.874 755.097C218.028 755.733 219.059 757.044 219.266 757.33L203.054 769.043ZM210.315 774.308C214.336 775.447 218.108 774.371 220.855 772.387L209.142 756.175C209.764 755.726 210.722 755.201 212 754.936C213.318 754.662 214.62 754.741 215.767 755.066L210.315 774.308ZM215.552 775.397C217.773 773.793 220.258 770.886 220.567 766.602C220.845 762.756 219.192 759.823 218.034 758.22L201.822 769.933C201.629 769.665 200.419 767.935 200.619 765.161C200.851 761.948 202.738 759.982 203.839 759.186L215.552 775.397ZM218.034 758.22C216.876 756.617 214.61 754.127 210.872 753.182C206.707 752.131 203.167 753.577 200.946 755.181L212.659 771.393C211.558 772.189 209.098 773.362 205.975 772.574C203.278 771.893 202.016 770.201 201.822 769.933L218.034 758.22ZM200.946 755.181C198.63 756.855 196.128 759.882 195.929 764.269L215.908 765.178C215.841 766.638 215.395 768.024 214.673 769.197C213.987 770.309 213.195 771.005 212.659 771.393L200.946 755.181ZM195.929 764.269C195.765 767.863 197.235 770.656 198.465 772.359L214.676 760.646C214.987 761.076 216.022 762.682 215.908 765.178L195.929 764.269ZM198.465 772.359C199.695 774.061 201.885 776.334 205.349 777.307L210.76 758.053C213.166 758.729 214.366 760.216 214.676 760.646L198.465 772.359ZM205.349 777.307C209.576 778.495 213.236 777.071 215.552 775.397L203.839 759.186C204.376 758.798 205.285 758.265 206.557 757.964C207.897 757.646 209.353 757.658 210.76 758.053L205.349 777.307Z" fill="#FEF9D2" mask="url(#path-14-outside-4_58_28)"/>
<mask id="path-16-outside-5_58_28" maskUnits="userSpaceOnUse" x="288.385" y="836.46" width="60.9949" height="61.1636" fill="black">
<rect fill="white" x="288.385" y="836.46" width="60.9949" height="61.1636"/>
<path d="M323.299 867.629C324.056 868.224 324.6 868.885 324.931 869.612C325.254 870.349 325.377 871.074 325.3 871.787C325.216 872.509 324.961 873.163 324.534 873.746L323.13 872.643C323.514 872.01 323.68 871.368 323.629 870.715C323.56 870.065 323.157 869.451 322.42 868.871C321.693 868.3 320.948 868.07 320.185 868.179C319.413 868.281 318.705 868.74 318.064 869.557C317.477 870.304 317.237 871.01 317.344 871.673C317.443 872.347 317.841 872.958 318.538 873.505C319.534 874.288 320.541 874.555 321.557 874.307L322.992 875.433L317.55 880.146L311.872 875.686L312.811 874.491L317.398 878.094L320.463 875.453L320.487 875.423C319.428 875.622 318.361 875.299 317.285 874.454C316.648 873.954 316.197 873.358 315.934 872.668C315.661 871.97 315.588 871.253 315.716 870.516C315.844 869.779 316.159 869.091 316.659 868.454C317.231 867.727 317.904 867.208 318.678 866.899C319.443 866.581 320.234 866.486 321.053 866.614C321.863 866.751 322.612 867.089 323.299 867.629ZM317.243 863.21C316.39 864.296 315.285 865.272 313.928 866.139C312.561 866.998 311.158 867.676 309.72 868.173C308.275 868.681 307.01 868.968 305.927 869.035L305.903 869.065L311.566 873.513L310.627 874.709L303.47 869.087L304.292 868.041C305.585 867.994 306.962 867.706 308.424 867.179C309.877 866.662 311.262 865.954 312.58 865.056C313.89 864.168 314.971 863.181 315.824 862.095L317.243 863.21Z"/>
</mask>
<path d="M323.299 867.629C324.056 868.224 324.6 868.885 324.931 869.612C325.254 870.349 325.377 871.074 325.3 871.787C325.216 872.509 324.961 873.163 324.534 873.746L323.13 872.643C323.514 872.01 323.68 871.368 323.629 870.715C323.56 870.065 323.157 869.451 322.42 868.871C321.693 868.3 320.948 868.07 320.185 868.179C319.413 868.281 318.705 868.74 318.064 869.557C317.477 870.304 317.237 871.01 317.344 871.673C317.443 872.347 317.841 872.958 318.538 873.505C319.534 874.288 320.541 874.555 321.557 874.307L322.992 875.433L317.55 880.146L311.872 875.686L312.811 874.491L317.398 878.094L320.463 875.453L320.487 875.423C319.428 875.622 318.361 875.299 317.285 874.454C316.648 873.954 316.197 873.358 315.934 872.668C315.661 871.97 315.588 871.253 315.716 870.516C315.844 869.779 316.159 869.091 316.659 868.454C317.231 867.727 317.904 867.208 318.678 866.899C319.443 866.581 320.234 866.486 321.053 866.614C321.863 866.751 322.612 867.089 323.299 867.629ZM317.243 863.21C316.39 864.296 315.285 865.272 313.928 866.139C312.561 866.998 311.158 867.676 309.72 868.173C308.275 868.681 307.01 868.968 305.927 869.035L305.903 869.065L311.566 873.513L310.627 874.709L303.47 869.087L304.292 868.041C305.585 867.994 306.962 867.706 308.424 867.179C309.877 866.662 311.262 865.954 312.58 865.056C313.89 864.168 314.971 863.181 315.824 862.095L317.243 863.21Z" fill="#D2C6AF"/>
<path d="M324.931 869.612L334.09 865.597L334.062 865.533L334.033 865.469L324.931 869.612ZM325.3 871.787L335.233 872.949L335.238 872.903L335.243 872.857L325.3 871.787ZM324.534 873.746L318.357 881.61L326.502 888.008L332.61 879.644L324.534 873.746ZM323.13 872.643L314.583 867.452L309.981 875.03L316.953 880.507L323.13 872.643ZM323.629 870.715L333.598 869.932L333.588 869.795L333.573 869.659L323.629 870.715ZM320.185 868.179L321.492 878.093L321.55 878.086L321.608 878.077L320.185 868.179ZM317.344 871.673L327.238 870.22L327.228 870.152L327.217 870.085L317.344 871.673ZM321.557 874.307L327.734 866.443L323.909 863.438L319.184 864.592L321.557 874.307ZM322.992 875.433L329.538 882.992L338.701 875.057L329.169 867.569L322.992 875.433ZM317.55 880.146L311.372 888.01L317.86 893.107L324.096 887.706L317.55 880.146ZM311.872 875.686L304.008 869.509L297.831 877.373L305.695 883.55L311.872 875.686ZM312.811 874.491L318.988 866.627L311.124 860.45L304.947 868.314L312.811 874.491ZM317.398 878.094L311.22 885.958L317.692 891.041L323.925 885.67L317.398 878.094ZM320.463 875.453L326.991 883.028L327.727 882.394L328.327 881.63L320.463 875.453ZM320.487 875.423L328.351 881.6L344.791 860.671L318.637 865.596L320.487 875.423ZM315.934 872.668L325.277 869.103L325.262 869.062L325.246 869.022L315.934 872.668ZM315.716 870.516L305.864 868.805L305.864 868.805L315.716 870.516ZM318.678 866.899L322.389 876.185L322.45 876.16L322.511 876.135L318.678 866.899ZM321.053 866.614L322.722 856.754L322.656 856.743L322.59 856.732L321.053 866.614ZM317.122 875.493C316.876 875.3 316.284 874.754 315.829 873.754L334.033 865.469C332.916 863.016 331.236 861.148 329.476 859.765L317.122 875.493ZM315.772 873.627C315.482 872.965 315.226 871.942 315.358 870.716L335.243 872.857C335.528 870.205 335.026 867.732 334.09 865.597L315.772 873.627ZM315.368 870.624C315.482 869.648 315.86 868.668 316.459 867.848L332.61 879.644C334.061 877.658 334.949 875.371 335.233 872.949L315.368 870.624ZM330.712 865.882L329.307 864.779L316.953 880.507L318.357 881.61L330.712 865.882ZM331.677 877.833C333.002 875.652 333.835 872.943 333.598 869.932L313.66 871.499C313.526 869.792 314.026 868.368 314.583 867.452L331.677 877.833ZM333.573 869.659C333.114 865.341 330.528 862.524 328.597 861.008L316.243 876.735C315.786 876.377 314.006 874.79 313.685 871.772L333.573 869.659ZM328.597 861.008C326.185 859.113 322.763 857.706 318.762 858.281L321.608 878.077C320.503 878.236 319.383 878.14 318.356 877.822C317.367 877.516 316.665 877.067 316.243 876.735L328.597 861.008ZM318.879 858.265C314.747 858.809 311.902 861.213 310.2 863.38L325.928 875.734C325.509 876.268 324.079 877.753 321.492 878.093L318.879 858.265ZM310.2 863.38C308.619 865.393 306.763 868.86 307.471 873.262L327.217 870.085C327.711 873.159 326.336 875.215 325.928 875.734L310.2 863.38ZM307.45 873.127C308.023 877.028 310.278 879.733 312.361 881.369L324.715 865.642C325.403 866.182 326.862 867.666 327.238 870.22L307.45 873.127ZM312.361 881.369C315.207 883.605 319.296 885.153 323.931 884.021L319.184 864.592C320.291 864.322 321.483 864.329 322.605 864.627C323.668 864.909 324.37 865.37 324.715 865.642L312.361 881.369ZM315.38 882.17L316.814 883.297L329.169 867.569L327.734 866.443L315.38 882.17ZM316.445 867.874L311.003 872.587L324.096 887.706L329.538 882.992L316.445 867.874ZM323.727 872.283L318.049 867.823L305.695 883.55L311.372 888.01L323.727 872.283ZM319.736 881.864L320.675 880.668L304.947 868.314L304.008 869.509L319.736 881.864ZM306.634 882.355L311.22 885.958L323.575 870.23L318.988 866.627L306.634 882.355ZM323.925 885.67L326.991 883.028L313.936 867.877L310.87 870.519L323.925 885.67ZM328.327 881.63L328.351 881.6L312.623 869.246L312.6 869.275L328.327 881.63ZM318.637 865.596C319.743 865.387 320.839 865.472 321.788 865.759C322.682 866.029 323.238 866.414 323.463 866.59L311.108 882.318C313.794 884.428 317.716 886.12 322.337 885.25L318.637 865.596ZM323.463 866.59C324.107 867.097 324.832 867.937 325.277 869.103L306.591 876.233C307.563 878.779 309.189 880.81 311.108 882.318L323.463 866.59ZM325.246 869.022C325.638 870.023 325.754 871.158 325.569 872.226L305.864 868.805C305.422 871.347 305.684 873.917 306.623 876.314L325.246 869.022ZM325.569 872.226C325.39 873.254 324.957 874.079 324.523 874.631L308.795 862.276C307.36 864.104 306.298 866.303 305.864 868.805L325.569 872.226ZM324.523 874.631C324.128 875.134 323.42 875.773 322.389 876.185L314.968 857.613C312.387 858.644 310.333 860.319 308.795 862.276L324.523 874.631ZM322.511 876.135C321.579 876.522 320.513 876.65 319.516 876.495L322.59 856.732C319.956 856.323 317.307 856.641 314.845 857.663L322.511 876.135ZM319.383 876.473C318.443 876.314 317.661 875.917 317.122 875.493L329.476 859.765C327.562 858.262 325.283 857.187 322.722 856.754L319.383 876.473ZM317.243 863.21L325.107 869.388L331.284 861.524L323.421 855.347L317.243 863.21ZM313.928 866.139L319.247 874.607L319.278 874.587L319.31 874.567L313.928 866.139ZM309.72 868.173L306.451 858.723L306.429 858.73L306.408 858.738L309.72 868.173ZM305.927 869.035L305.31 859.054L300.833 859.331L298.063 862.858L305.927 869.035ZM305.903 869.065L298.039 862.888L291.862 870.751L299.726 876.929L305.903 869.065ZM311.566 873.513L319.43 879.691L325.607 871.827L317.743 865.649L311.566 873.513ZM310.627 874.709L304.45 882.572L312.314 888.75L318.491 880.886L310.627 874.709ZM303.47 869.087L295.606 862.909L289.429 870.773L297.293 876.95L303.47 869.087ZM304.292 868.041L303.928 858.047L299.293 858.216L296.428 861.863L304.292 868.041ZM308.424 867.179L305.07 857.758L305.05 857.765L305.029 857.773L308.424 867.179ZM312.58 865.056L306.968 856.779L306.958 856.786L306.948 856.793L312.58 865.056ZM315.824 862.095L322.001 854.232L314.137 848.054L307.96 855.918L315.824 862.095ZM309.379 857.033C309.326 857.101 309.11 857.351 308.546 857.711L319.31 874.567C321.461 873.194 323.454 871.492 325.107 869.388L309.379 857.033ZM308.609 857.671C307.846 858.15 307.128 858.489 306.451 858.723L312.99 877.624C315.189 876.863 317.275 875.845 319.247 874.607L308.609 857.671ZM306.408 858.738C305.983 858.887 305.674 858.972 305.473 859.018C305.268 859.064 305.222 859.06 305.31 859.054L306.544 879.016C308.837 878.874 311.044 878.307 313.032 877.609L306.408 858.738ZM298.063 862.858L298.039 862.888L313.767 875.242L313.791 875.212L298.063 862.858ZM299.726 876.929L305.389 881.377L317.743 865.649L312.081 861.201L299.726 876.929ZM303.702 867.336L302.763 868.531L318.491 880.886L319.43 879.691L303.702 867.336ZM316.804 866.845L309.648 861.223L297.293 876.95L304.45 882.572L316.804 866.845ZM311.334 875.264L312.156 874.218L296.428 861.863L295.606 862.909L311.334 875.264ZM304.656 878.034C307.167 877.943 309.572 877.396 311.818 876.585L305.029 857.773C304.353 858.017 304.004 858.045 303.928 858.047L304.656 878.034ZM311.777 876.6C314.063 875.786 316.211 874.683 318.212 873.319L306.948 856.793C306.313 857.225 305.691 857.537 305.07 857.758L311.777 876.6ZM318.192 873.333C320.234 871.948 322.112 870.279 323.688 868.273L307.96 855.918C307.83 856.083 307.545 856.388 306.968 856.779L318.192 873.333ZM309.646 869.959L311.066 871.074L323.421 855.347L322.001 854.232L309.646 869.959Z" fill="#FEF9D2" mask="url(#path-16-outside-5_58_28)"/>
</svg>
