<svg width="828" height="887" viewBox="0 0 828 887" fill="none" xmlns="http://www.w3.org/2000/svg">
<circle opacity="0.2" cx="542.5" cy="344.5" r="542.5" fill="#FEF9D2"/>
<circle opacity="0.4" cx="542.5" cy="344.5" r="498.5" fill="#FEF9D2"/>
<circle cx="542.5" cy="344.5" r="450.5" fill="#FEF9D2"/>
<circle cx="542.5" cy="344.5" r="399.5" stroke="white" stroke-width="2" stroke-linecap="round" stroke-dasharray="4 13"/>
<path d="M107.569 320.536C107.261 315.364 111.372 311 116.553 311H164.447C169.628 311 173.739 315.364 173.431 320.536L170.505 369.536C170.221 374.29 166.284 378 161.521 378H119.479C114.716 378 110.779 374.29 110.495 369.536L107.569 320.536Z" fill="white"/>
<path d="M129.339 350.546C125.803 350.546 123.229 349.337 121.617 346.919C120.031 344.475 119.238 341.004 119.238 336.506C119.238 332.164 120.122 328.745 121.89 326.249C123.684 323.753 126.219 322.505 129.495 322.505C131.107 322.505 132.524 322.843 133.746 323.519C134.994 324.169 135.982 325.066 136.71 326.21C137.438 327.328 137.867 328.55 137.997 329.876H134.331C133.941 327.042 132.329 325.625 129.495 325.625C126.999 325.625 125.244 326.6 124.23 328.55C123.242 330.5 122.748 332.957 122.748 335.921V336.272L122.826 336.311C123.528 335.037 124.503 334.075 125.751 333.425C126.999 332.749 128.403 332.411 129.963 332.411C131.653 332.411 133.161 332.788 134.487 333.542C135.813 334.27 136.84 335.31 137.568 336.662C138.322 337.988 138.699 339.535 138.699 341.303C138.699 342.993 138.322 344.54 137.568 345.944C136.814 347.348 135.722 348.466 134.292 349.298C132.888 350.13 131.237 350.546 129.339 350.546ZM123.294 341.615C123.294 343.383 123.814 344.8 124.854 345.866C125.92 346.906 127.415 347.426 129.339 347.426C131.159 347.426 132.563 346.906 133.551 345.866C134.539 344.8 135.033 343.357 135.033 341.537C135.033 339.639 134.539 338.17 133.551 337.13C132.589 336.064 131.289 335.531 129.651 335.531C127.727 335.531 126.18 336.09 125.01 337.208C123.866 338.326 123.294 339.795 123.294 341.615ZM152.424 350.546C148.94 350.546 146.34 349.246 144.624 346.646C142.908 344.02 142.05 340.653 142.05 336.545C142.05 332.411 142.908 329.044 144.624 326.444C146.34 323.818 148.94 322.505 152.424 322.505C155.908 322.505 158.508 323.818 160.224 326.444C161.94 329.044 162.798 332.411 162.798 336.545C162.798 340.653 161.94 344.02 160.224 346.646C158.508 349.246 155.908 350.546 152.424 350.546ZM145.716 336.545C145.716 339.769 146.236 342.395 147.276 344.423C148.316 346.425 150.032 347.426 152.424 347.426C154.816 347.426 156.532 346.425 157.572 344.423C158.612 342.395 159.132 339.769 159.132 336.545C159.132 333.321 158.612 330.695 157.572 328.667C156.532 326.639 154.816 325.625 152.424 325.625C150.032 325.625 148.316 326.639 147.276 328.667C146.236 330.695 145.716 333.321 145.716 336.545Z" fill="#2C1C00"/>
<path d="M134.273 369.238C133.174 369.238 132.199 368.966 131.349 368.422C130.499 367.878 129.836 367.13 129.36 366.178C128.884 365.215 128.646 364.127 128.646 362.914C128.646 361.701 128.884 360.619 129.36 359.667C129.836 358.704 130.499 357.956 131.349 357.423C132.199 356.879 133.174 356.607 134.273 356.607C135.236 356.607 136.092 356.8 136.84 357.185C137.588 357.559 138.183 358.069 138.625 358.715C139.067 359.361 139.339 360.075 139.441 360.857H137.843C137.696 360.098 137.344 359.429 136.789 358.851C136.245 358.262 135.406 357.967 134.273 357.967C133.355 357.967 132.596 358.199 131.995 358.664C131.394 359.129 130.952 359.735 130.669 360.483C130.386 361.231 130.244 362.041 130.244 362.914C130.244 363.787 130.386 364.603 130.669 365.362C130.952 366.11 131.394 366.716 131.995 367.181C132.596 367.646 133.355 367.878 134.273 367.878C135.44 367.878 136.313 367.561 136.891 366.926C137.469 366.28 137.786 365.509 137.843 364.614H139.441C139.35 365.509 139.084 366.308 138.642 367.011C138.2 367.714 137.605 368.263 136.857 368.66C136.109 369.045 135.248 369.238 134.273 369.238ZM141.211 356.845H143.302L147.11 366.943H147.144L150.952 356.845H153.043V369H151.513V359.004H151.479L147.807 369H146.447L142.775 359.004H142.741V369H141.211V356.845Z" fill="#2C1C00"/>
<mask id="path-8-outside-1_58_28" maskUnits="userSpaceOnUse" x="138.192" y="441.328" width="52.8397" height="52.1015" fill="black">
<rect fill="white" x="138.192" y="441.328" width="52.8397" height="52.1015"/>
<path d="M167.884 471.291C168.109 472.227 168.126 473.083 167.935 473.858C167.731 474.637 167.379 475.282 166.876 475.794C166.362 476.308 165.757 476.662 165.061 476.856L164.643 475.12C165.336 474.861 165.865 474.461 166.229 473.917C166.578 473.364 166.643 472.632 166.424 471.72C166.207 470.821 165.766 470.179 165.1 469.792C164.43 469.393 163.591 469.315 162.581 469.558C161.657 469.78 161.032 470.184 160.704 470.771C160.364 471.361 160.298 472.087 160.505 472.949C160.801 474.181 161.425 475.014 162.377 475.45L162.804 477.223L155.612 477.547L153.923 470.527L155.4 470.172L156.765 475.843L160.808 475.671L160.845 475.662C159.891 475.162 159.254 474.247 158.934 472.917C158.744 472.129 158.76 471.383 158.981 470.678C159.2 469.961 159.587 469.353 160.145 468.854C160.702 468.355 161.375 468.011 162.163 467.821C163.062 467.605 163.911 467.615 164.711 467.853C165.508 468.078 166.188 468.494 166.751 469.101C167.302 469.711 167.679 470.441 167.884 471.291ZM165.384 460.904C165.568 461.667 165.577 462.381 165.411 463.047C165.23 463.703 164.917 464.267 164.47 464.739C164.011 465.214 163.475 465.558 162.862 465.771L162.444 464.034C163.742 463.527 164.229 462.602 163.906 461.259C163.622 460.077 162.961 459.363 161.925 459.117C160.886 458.859 159.664 458.899 158.26 459.237L158.094 459.277L158.084 459.319C158.768 459.506 159.341 459.856 159.803 460.371C160.253 460.888 160.567 461.516 160.745 462.254C160.938 463.055 160.937 463.811 160.744 464.522C160.538 465.236 160.164 465.847 159.622 466.355C159.064 466.854 158.367 467.204 157.529 467.406C156.729 467.599 155.953 467.596 155.202 467.399C154.451 467.202 153.799 466.818 153.245 466.248C152.687 465.666 152.301 464.925 152.084 464.026C151.681 462.351 151.968 460.999 152.945 459.969C153.907 458.93 155.453 458.154 157.583 457.641C159.64 457.146 161.361 457.181 162.748 457.747C164.132 458.3 165.011 459.352 165.384 460.904ZM157.001 465.696C157.9 465.48 158.547 465.083 158.942 464.506C159.322 463.919 159.419 463.238 159.232 462.462C159.013 461.551 158.573 460.888 157.913 460.474C157.25 460.047 156.488 459.937 155.626 460.145C154.788 460.346 154.184 460.759 153.813 461.382C153.426 461.996 153.343 462.759 153.562 463.67C153.77 464.532 154.182 465.137 154.8 465.483C155.405 465.833 156.139 465.904 157.001 465.696Z"/>
</mask>
<path d="M167.884 471.291C168.109 472.227 168.126 473.083 167.935 473.858C167.731 474.637 167.379 475.282 166.876 475.794C166.362 476.308 165.757 476.662 165.061 476.856L164.643 475.12C165.336 474.861 165.865 474.461 166.229 473.917C166.578 473.364 166.643 472.632 166.424 471.72C166.207 470.821 165.766 470.179 165.1 469.792C164.43 469.393 163.591 469.315 162.581 469.558C161.657 469.78 161.032 470.184 160.704 470.771C160.364 471.361 160.298 472.087 160.505 472.949C160.801 474.181 161.425 475.014 162.377 475.45L162.804 477.223L155.612 477.547L153.923 470.527L155.4 470.172L156.765 475.843L160.808 475.671L160.845 475.662C159.891 475.162 159.254 474.247 158.934 472.917C158.744 472.129 158.76 471.383 158.981 470.678C159.2 469.961 159.587 469.353 160.145 468.854C160.702 468.355 161.375 468.011 162.163 467.821C163.062 467.605 163.911 467.615 164.711 467.853C165.508 468.078 166.188 468.494 166.751 469.101C167.302 469.711 167.679 470.441 167.884 471.291ZM165.384 460.904C165.568 461.667 165.577 462.381 165.411 463.047C165.23 463.703 164.917 464.267 164.47 464.739C164.011 465.214 163.475 465.558 162.862 465.771L162.444 464.034C163.742 463.527 164.229 462.602 163.906 461.259C163.622 460.077 162.961 459.363 161.925 459.117C160.886 458.859 159.664 458.899 158.26 459.237L158.094 459.277L158.084 459.319C158.768 459.506 159.341 459.856 159.803 460.371C160.253 460.888 160.567 461.516 160.745 462.254C160.938 463.055 160.937 463.811 160.744 464.522C160.538 465.236 160.164 465.847 159.622 466.355C159.064 466.854 158.367 467.204 157.529 467.406C156.729 467.599 155.953 467.596 155.202 467.399C154.451 467.202 153.799 466.818 153.245 466.248C152.687 465.666 152.301 464.925 152.084 464.026C151.681 462.351 151.968 460.999 152.945 459.969C153.907 458.93 155.453 458.154 157.583 457.641C159.64 457.146 161.361 457.181 162.748 457.747C164.132 458.3 165.011 459.352 165.384 460.904ZM157.001 465.696C157.9 465.48 158.547 465.083 158.942 464.506C159.322 463.919 159.419 463.238 159.232 462.462C159.013 461.551 158.573 460.888 157.913 460.474C157.25 460.047 156.488 459.937 155.626 460.145C154.788 460.346 154.184 460.759 153.813 461.382C153.426 461.996 153.343 462.759 153.562 463.67C153.77 464.532 154.182 465.137 154.8 465.483C155.405 465.833 156.139 465.904 157.001 465.696Z" fill="#D2C6AF"/>
<path d="M167.935 473.858L177.61 476.387L177.628 476.319L177.644 476.251L167.935 473.858ZM166.876 475.794L173.948 482.864L173.981 482.831L174.013 482.798L166.876 475.794ZM165.061 476.856L155.338 479.196L157.761 489.265L167.74 486.49L165.061 476.856ZM164.643 475.12L161.155 465.748L152.846 468.84L154.92 477.459L164.643 475.12ZM166.229 473.917L174.537 479.483L174.613 479.369L174.686 479.254L166.229 473.917ZM165.1 469.792L159.978 478.38L160.028 478.411L160.079 478.44L165.1 469.792ZM160.704 470.771L169.368 475.766L169.402 475.706L169.435 475.647L160.704 470.771ZM162.377 475.45L172.099 473.11L170.961 468.381L166.538 466.357L162.377 475.45ZM162.804 477.223L163.253 487.213L175.362 486.668L172.526 474.883L162.804 477.223ZM155.612 477.547L145.889 479.887L147.82 487.908L156.062 487.537L155.612 477.547ZM153.923 470.527L151.583 460.805L141.86 463.145L144.2 472.867L153.923 470.527ZM155.4 470.172L165.123 467.832L162.783 458.11L153.061 460.449L155.4 470.172ZM156.765 475.843L147.043 478.183L148.968 486.183L157.19 485.834L156.765 475.843ZM160.808 475.671L161.233 485.662L162.203 485.621L163.148 485.393L160.808 475.671ZM160.845 475.662L163.185 485.385L189.061 479.157L165.487 466.805L160.845 475.662ZM158.981 470.678L168.522 473.674L168.535 473.632L168.548 473.591L158.981 470.678ZM160.145 468.854L153.475 461.403L153.475 461.403L160.145 468.854ZM164.711 467.853L161.865 477.439L161.928 477.458L161.992 477.476L164.711 467.853ZM166.751 469.101L174.174 462.401L174.129 462.351L174.083 462.301L166.751 469.101ZM158.161 473.631C158.088 473.327 157.963 472.531 158.225 471.465L177.644 476.251C178.289 473.634 178.13 471.127 177.606 468.951L158.161 473.631ZM158.26 471.33C158.442 470.631 158.876 469.669 159.739 468.789L174.013 482.798C175.882 480.895 177.02 478.642 177.61 476.387L158.26 471.33ZM159.804 468.724C160.499 468.029 161.404 467.493 162.381 467.222L167.74 486.49C170.109 485.831 172.225 484.588 173.948 482.864L159.804 468.724ZM174.783 474.516L174.365 472.78L154.92 477.459L155.338 479.196L174.783 474.516ZM168.13 484.492C170.522 483.602 172.855 481.993 174.537 479.483L157.922 468.351C158.875 466.928 160.15 466.121 161.155 465.748L168.13 484.492ZM174.686 479.254C177.004 475.581 176.721 471.767 176.146 469.381L156.701 474.06C156.566 473.496 156.153 471.147 157.772 468.58L174.686 479.254ZM176.146 469.381C175.428 466.398 173.616 463.173 170.12 461.143L160.079 478.44C159.113 477.879 158.295 477.11 157.686 476.224C157.1 475.37 156.827 474.583 156.701 474.06L176.146 469.381ZM170.222 461.203C166.642 459.068 162.92 459.19 160.241 459.835L164.921 479.28C164.261 479.439 162.219 479.717 159.978 478.38L170.222 461.203ZM160.241 459.835C157.752 460.434 154.146 462.004 151.973 465.896L169.435 475.647C167.917 478.365 165.563 479.126 164.921 479.28L160.241 459.835ZM152.04 465.777C150.071 469.194 150.163 472.715 150.783 475.289L170.227 470.61C170.432 471.46 170.657 473.529 169.368 475.766L152.04 465.777ZM150.783 475.289C151.629 478.808 153.878 482.558 158.216 484.543L166.538 466.357C167.574 466.831 168.505 467.576 169.2 468.505C169.859 469.385 170.125 470.183 170.227 470.61L150.783 475.289ZM152.655 477.79L153.081 479.563L172.526 474.883L172.099 473.11L152.655 477.79ZM162.354 467.233L155.162 467.557L156.062 487.537L163.253 487.213L162.354 467.233ZM165.334 475.207L163.645 468.188L144.2 472.867L145.889 479.887L165.334 475.207ZM156.262 480.25L157.74 479.894L153.061 460.449L151.583 460.805L156.262 480.25ZM145.678 472.512L147.043 478.183L166.488 473.503L165.123 467.832L145.678 472.512ZM157.19 485.834L161.233 485.662L160.384 465.68L156.341 465.852L157.19 485.834ZM163.148 485.393L163.185 485.385L158.505 465.94L158.468 465.949L163.148 485.393ZM165.487 466.805C166.484 467.327 167.292 468.073 167.858 468.887C168.392 469.653 168.589 470.299 168.656 470.577L149.211 475.257C150.011 478.578 152.038 482.337 156.204 484.52L165.487 466.805ZM168.656 470.577C168.848 471.374 168.896 472.483 168.522 473.674L149.441 467.682C148.624 470.282 148.64 472.884 149.211 475.257L168.656 470.577ZM168.548 473.591C168.234 474.619 167.622 475.582 166.814 476.305L153.475 461.403C151.553 463.124 150.165 465.303 149.415 467.765L168.548 473.591ZM166.814 476.305C166.037 477.001 165.186 477.379 164.503 477.544L159.823 458.099C157.564 458.642 155.367 459.709 153.475 461.403L166.814 476.305ZM164.503 477.544C163.881 477.693 162.93 477.755 161.865 477.439L167.558 458.266C164.893 457.475 162.243 457.516 159.823 458.099L164.503 477.544ZM161.992 477.476C161.021 477.202 160.105 476.641 159.419 475.901L174.083 462.301C172.271 460.347 169.995 458.954 167.43 458.23L161.992 477.476ZM159.328 475.802C158.689 475.094 158.322 474.298 158.161 473.631L177.606 468.951C177.037 466.585 175.914 464.328 174.174 462.401L159.328 475.802ZM165.411 463.047L175.051 465.706L175.085 465.584L175.115 465.463L165.411 463.047ZM164.47 464.739L171.664 471.685L171.7 471.648L171.736 471.61L164.47 464.739ZM162.862 465.771L153.139 468.111L155.72 478.833L166.139 475.219L162.862 465.771ZM162.444 464.034L158.8 454.722L150.682 457.898L152.721 466.374L162.444 464.034ZM161.925 459.117L159.515 468.823L159.567 468.835L159.618 468.848L161.925 459.117ZM158.094 459.277L155.754 449.555L149.745 451.001L148.352 457.022L158.094 459.277ZM158.084 459.319L148.342 457.063L146.175 466.424L155.442 468.963L158.084 459.319ZM159.803 460.371L167.345 453.804L167.292 453.743L167.238 453.683L159.803 460.371ZM160.744 464.522L170.352 467.294L170.373 467.222L170.392 467.15L160.744 464.522ZM159.622 466.355L166.291 473.806L166.377 473.729L166.461 473.65L159.622 466.355ZM155.202 467.399L157.741 457.727L157.741 457.727L155.202 467.399ZM153.245 466.248L146.018 473.16L146.045 473.189L146.073 473.218L153.245 466.248ZM152.945 459.969L160.2 466.851L160.243 466.806L160.285 466.761L152.945 459.969ZM162.748 457.747L158.974 467.007L159.006 467.02L159.038 467.033L162.748 457.747ZM158.942 464.506L167.193 470.156L167.265 470.051L167.335 469.943L158.942 464.506ZM157.913 460.474L152.5 468.882L152.547 468.913L152.595 468.942L157.913 460.474ZM153.813 461.382L162.277 466.707L162.343 466.603L162.406 466.497L153.813 461.382ZM154.8 465.483L159.8 456.823L159.746 456.792L159.693 456.762L154.8 465.483ZM155.662 463.243C155.524 462.672 155.431 461.74 155.707 460.631L175.115 465.463C175.722 463.023 175.611 460.662 175.106 458.564L155.662 463.243ZM155.771 460.388C156.004 459.543 156.473 458.641 157.204 457.868L171.736 471.61C173.36 469.892 174.456 467.862 175.051 465.706L155.771 460.388ZM157.276 457.793C157.888 457.159 158.687 456.634 159.585 456.323L166.139 475.219C168.263 474.482 170.134 473.269 171.664 471.685L157.276 457.793ZM172.584 463.431L172.166 461.695L152.721 466.374L153.139 468.111L172.584 463.431ZM166.087 473.347C168.22 472.513 170.94 470.829 172.63 467.621C174.328 464.399 174.173 461.183 173.629 458.919L154.184 463.599C153.962 462.678 153.725 460.596 154.936 458.298C156.139 456.015 157.966 455.048 158.8 454.722L166.087 473.347ZM173.629 458.919C173.185 457.076 172.286 454.936 170.539 453.047C168.732 451.093 166.491 449.923 164.232 449.387L159.618 468.848C158.395 468.558 157.003 467.867 155.856 466.627C154.769 465.452 154.343 464.26 154.184 463.599L173.629 458.919ZM164.335 449.412C161.289 448.656 158.366 448.926 155.921 449.515L160.6 468.96C160.757 468.922 160.733 468.943 160.556 468.948C160.373 468.954 160.006 468.945 159.515 468.823L164.335 449.412ZM155.921 449.515L155.754 449.555L160.434 469L160.6 468.96L155.921 449.515ZM148.352 457.022L148.342 457.063L167.827 461.574L167.836 461.532L148.352 457.022ZM155.442 468.963C154.326 468.657 153.221 468.005 152.369 467.059L167.238 453.683C165.461 451.707 163.21 450.354 160.727 449.674L155.442 468.963ZM152.261 466.937C151.545 466.114 151.18 465.246 151.023 464.594L170.468 459.915C169.955 457.785 168.962 455.661 167.345 453.804L152.261 466.937ZM151.023 464.594C150.869 463.954 150.797 462.989 151.095 461.894L170.392 467.15C171.078 464.632 171.007 462.156 170.468 459.915L151.023 464.594ZM151.136 461.75C151.428 460.734 152.011 459.783 152.782 459.06L166.461 473.65C168.316 471.911 169.647 469.737 170.352 467.294L151.136 461.75ZM152.952 458.904C153.803 458.142 154.663 457.81 155.19 457.683L159.869 477.128C162.07 476.599 164.325 475.566 166.291 473.806L152.952 458.904ZM155.19 457.683C155.894 457.514 156.798 457.479 157.741 457.727L152.664 477.072C155.108 477.713 157.563 477.683 159.869 477.128L155.19 457.683ZM157.741 457.727C158.795 458.004 159.733 458.576 160.416 459.279L146.073 473.218C147.865 475.061 150.107 476.401 152.664 477.072L157.741 457.727ZM160.471 459.337C161.306 460.209 161.672 461.124 161.807 461.686L142.362 466.366C142.93 468.726 144.069 471.123 146.018 473.16L160.471 459.337ZM161.807 461.686C161.87 461.95 162.012 462.736 161.78 463.831C161.53 465.01 160.946 466.065 160.2 466.851L145.69 453.087C141.861 457.123 141.361 462.207 142.362 466.366L161.807 461.686ZM160.285 466.761C159.792 467.293 159.38 467.511 159.311 467.545C159.249 467.577 159.414 467.486 159.923 467.364L155.243 447.919C152.168 448.659 148.456 450.096 145.605 453.177L160.285 466.761ZM159.923 467.364C160.3 467.273 160.377 467.298 160.213 467.294C160.03 467.291 159.572 467.251 158.974 467.007L166.523 448.486C162.544 446.865 158.523 447.13 155.243 447.919L159.923 467.364ZM159.038 467.033C158.327 466.749 157.483 466.215 156.769 465.36C156.072 464.525 155.776 463.718 155.662 463.243L175.106 458.564C174.037 454.122 171.097 450.314 166.459 448.461L159.038 467.033ZM159.34 475.419C161.855 474.813 164.999 473.359 167.193 470.156L150.691 458.856C152.094 456.807 153.944 456.146 154.661 455.974L159.34 475.419ZM167.335 469.943C169.422 466.721 169.683 463.149 168.954 460.123L149.509 464.802C149.354 464.158 149.244 463.241 149.399 462.151C149.558 461.03 149.963 459.974 150.549 459.069L167.335 469.943ZM168.954 460.123C168.256 457.22 166.539 454.083 163.231 452.005L152.595 468.942C151.697 468.378 150.952 467.636 150.404 466.809C149.875 466.011 149.625 465.284 149.509 464.802L168.954 460.123ZM163.326 452.065C160.07 449.969 156.439 449.663 153.286 450.422L157.965 469.867C157.348 470.016 156.468 470.12 155.421 469.97C154.347 469.815 153.347 469.427 152.5 468.882L163.326 452.065ZM153.286 450.422C150.357 451.127 147.224 452.899 145.22 456.268L162.406 466.497C161.841 467.447 161.072 468.257 160.182 468.864C159.323 469.451 158.521 469.734 157.965 469.867L153.286 450.422ZM145.349 456.057C143.14 459.567 143.183 463.281 143.84 466.01L163.285 461.331C163.503 462.237 163.712 464.426 162.277 466.707L145.349 456.057ZM143.84 466.01C144.523 468.85 146.276 472.168 149.907 474.204L159.693 456.762C160.774 457.369 161.653 458.204 162.286 459.132C162.892 460.019 163.163 460.825 163.285 461.331L143.84 466.01ZM149.8 474.143C153.178 476.094 156.685 476.058 159.34 475.419L154.661 455.974C155.593 455.749 157.632 455.572 159.8 456.823L149.8 474.143Z" fill="#FEF9D2" mask="url(#path-8-outside-1_58_28)"/>
<mask id="path-10-outside-2_58_28" maskUnits="userSpaceOnUse" x="126.111" y="199.047" width="53.4577" height="47.4291" fill="black">
<rect fill="white" x="126.111" y="199.047" width="53.4577" height="47.4291"/>
<path d="M163.284 228.887C162.788 230.537 161.863 231.569 160.509 231.982C159.146 232.379 157.416 232.262 155.317 231.631C153.291 231.023 151.82 230.131 150.904 228.956C149.991 227.769 149.764 226.411 150.223 224.883C150.449 224.13 150.806 223.517 151.292 223.041C151.771 222.55 152.328 222.215 152.964 222.036C153.587 221.853 154.218 221.824 154.854 221.949L154.34 223.66C152.963 223.444 152.076 223.998 151.679 225.32C151.329 226.485 151.538 227.44 152.305 228.187C153.076 228.921 154.154 229.496 155.536 229.912L155.7 229.961L155.729 229.93C155.233 229.424 154.921 228.834 154.793 228.161C154.653 227.484 154.692 226.781 154.911 226.053C155.148 225.265 155.535 224.614 156.073 224.101C156.598 223.585 157.227 223.251 157.96 223.101C158.685 222.935 159.459 222.976 160.284 223.224C161.073 223.461 161.742 223.854 162.291 224.403C162.84 224.951 163.209 225.618 163.396 226.402C163.588 227.173 163.55 228.002 163.284 228.887ZM158.27 230.455C159.095 230.703 159.829 230.659 160.472 230.324C161.106 229.972 161.559 229.348 161.828 228.45C162.084 227.601 162.038 226.873 161.691 226.266C161.332 225.656 160.729 225.223 159.879 224.968C158.994 224.701 158.239 224.726 157.615 225.041C156.983 225.34 156.552 225.872 156.322 226.636C156.053 227.534 156.097 228.334 156.454 229.037C156.815 229.727 157.42 230.2 158.27 230.455ZM155.835 217.96C156.001 218.288 156.063 218.677 156.02 219.127C155.978 219.577 155.86 220.123 155.666 220.766L154.302 220.356C154.507 219.585 154.591 218.975 154.554 218.527C154.52 218.067 154.377 217.707 154.125 217.446C153.873 217.185 153.484 216.936 152.96 216.699L153.343 215.426L165.917 219.205L165.424 220.842L155.835 217.96Z"/>
</mask>
<path d="M163.284 228.887C162.788 230.537 161.863 231.569 160.509 231.982C159.146 232.379 157.416 232.262 155.317 231.631C153.291 231.023 151.82 230.131 150.904 228.956C149.991 227.769 149.764 226.411 150.223 224.883C150.449 224.13 150.806 223.517 151.292 223.041C151.771 222.55 152.328 222.215 152.964 222.036C153.587 221.853 154.218 221.824 154.854 221.949L154.34 223.66C152.963 223.444 152.076 223.998 151.679 225.32C151.329 226.485 151.538 227.44 152.305 228.187C153.076 228.921 154.154 229.496 155.536 229.912L155.7 229.961L155.729 229.93C155.233 229.424 154.921 228.834 154.793 228.161C154.653 227.484 154.692 226.781 154.911 226.053C155.148 225.265 155.535 224.614 156.073 224.101C156.598 223.585 157.227 223.251 157.96 223.101C158.685 222.935 159.459 222.976 160.284 223.224C161.073 223.461 161.742 223.854 162.291 224.403C162.84 224.951 163.209 225.618 163.396 226.402C163.588 227.173 163.55 228.002 163.284 228.887ZM158.27 230.455C159.095 230.703 159.829 230.659 160.472 230.324C161.106 229.972 161.559 229.348 161.828 228.45C162.084 227.601 162.038 226.873 161.691 226.266C161.332 225.656 160.729 225.223 159.879 224.968C158.994 224.701 158.239 224.726 157.615 225.041C156.983 225.34 156.552 225.872 156.322 226.636C156.053 227.534 156.097 228.334 156.454 229.037C156.815 229.727 157.42 230.2 158.27 230.455ZM155.835 217.96C156.001 218.288 156.063 218.677 156.02 219.127C155.978 219.577 155.86 220.123 155.666 220.766L154.302 220.356C154.507 219.585 154.591 218.975 154.554 218.527C154.52 218.067 154.377 217.707 154.125 217.446C153.873 217.185 153.484 216.936 152.96 216.699L153.343 215.426L165.917 219.205L165.424 220.842L155.835 217.96Z" fill="#D2C6AF"/>
<path d="M160.509 231.982L163.308 241.582L163.367 241.565L163.426 241.547L160.509 231.982ZM150.904 228.956L142.977 235.052L142.998 235.08L143.019 235.107L150.904 228.956ZM151.292 223.041L158.279 230.196L158.369 230.108L158.457 230.018L151.292 223.041ZM152.964 222.036L155.677 231.661L155.727 231.647L155.777 231.632L152.964 222.036ZM154.854 221.949L164.431 224.828L167.606 214.266L156.785 212.138L154.854 221.949ZM154.34 223.66L152.794 233.54L161.408 234.887L163.917 226.538L154.34 223.66ZM152.305 228.187L145.333 235.355L145.371 235.392L145.409 235.429L152.305 228.187ZM155.7 229.961L152.822 239.538L158.741 241.317L162.979 236.818L155.7 229.961ZM155.729 229.93L163.008 236.787L169.596 229.794L162.872 222.931L155.729 229.93ZM154.793 228.161L164.616 226.29L164.601 226.21L164.585 226.13L154.793 228.161ZM156.073 224.101L162.975 231.337L163.029 231.286L163.082 231.233L156.073 224.101ZM157.96 223.101L159.966 232.898L160.08 232.875L160.192 232.849L157.96 223.101ZM162.291 224.403L169.358 217.328L169.358 217.328L162.291 224.403ZM163.396 226.402L153.671 228.73L153.681 228.769L153.69 228.808L163.396 226.402ZM160.472 230.324L165.099 239.189L165.209 239.132L165.317 239.072L160.472 230.324ZM161.691 226.266L170.374 221.305L170.344 221.252L170.312 221.199L161.691 226.266ZM157.615 225.041L161.895 234.079L162.01 234.024L162.125 233.967L157.615 225.041ZM156.454 229.037L147.542 233.572L147.567 233.622L147.593 233.672L156.454 229.037ZM153.707 226.009C153.782 225.76 154.046 225.033 154.774 224.222C155.557 223.349 156.565 222.73 157.592 222.417L163.426 241.547C168.698 239.939 171.641 235.824 172.861 231.766L153.707 226.009ZM157.71 222.381C158.374 222.188 158.808 222.211 158.862 222.215C158.894 222.217 158.856 222.216 158.738 222.193C158.621 222.17 158.441 222.129 158.196 222.055L152.439 241.208C155.457 242.115 159.337 242.74 163.308 241.582L157.71 222.381ZM158.196 222.055C157.814 221.94 157.749 221.876 157.878 221.954C158.023 222.042 158.393 222.299 158.788 222.805L143.019 235.107C145.643 238.47 149.232 240.244 152.439 241.208L158.196 222.055ZM158.83 222.859C159.285 223.45 159.732 224.319 159.912 225.4C160.088 226.455 159.941 227.292 159.8 227.761L140.646 222.004C139.332 226.378 139.955 231.123 142.977 235.052L158.83 222.859ZM159.8 227.761C159.615 228.378 159.179 229.317 158.279 230.196L144.306 215.887C142.432 217.717 141.284 219.883 140.646 222.004L159.8 227.761ZM158.457 230.018C157.758 230.736 156.797 231.345 155.677 231.661L150.25 212.411C147.859 213.085 145.784 214.365 144.128 216.065L158.457 230.018ZM155.777 231.632C154.862 231.9 153.865 231.947 152.924 231.761L156.785 212.138C154.57 211.702 152.312 211.806 150.15 212.44L155.777 231.632ZM145.278 219.071L144.764 220.782L163.917 226.538L164.431 224.828L145.278 219.071ZM155.886 213.78C153.624 213.426 150.426 213.51 147.35 215.429C144.259 217.357 142.772 220.212 142.102 222.442L161.256 228.198C160.983 229.106 160.138 231.023 157.935 232.398C155.746 233.764 153.68 233.678 152.794 233.54L155.886 213.78ZM142.102 222.442C141.555 224.261 141.258 226.549 141.803 229.045C142.366 231.619 143.682 233.75 145.333 235.355L159.277 221.018C160.161 221.877 160.989 223.156 161.342 224.775C161.679 226.315 161.452 227.544 161.256 228.198L142.102 222.442ZM145.409 235.429C147.649 237.561 150.28 238.774 152.658 239.489L158.415 220.335C158.246 220.284 158.261 220.273 158.401 220.347C158.545 220.424 158.845 220.606 159.201 220.945L145.409 235.429ZM152.658 239.489L152.822 239.538L158.579 220.384L158.415 220.335L152.658 239.489ZM162.979 236.818L163.008 236.787L148.451 223.073L148.422 223.104L162.979 236.818ZM162.872 222.931C163.706 223.783 164.363 224.959 164.616 226.29L144.97 230.032C145.48 232.709 146.761 235.065 148.587 236.929L162.872 222.931ZM164.585 226.13C164.815 227.239 164.699 228.228 164.487 228.932L145.334 223.175C144.685 225.334 144.491 227.728 145.001 230.191L164.585 226.13ZM164.487 228.932C164.281 229.62 163.823 230.528 162.975 231.337L149.17 216.865C147.247 218.7 146.014 220.91 145.334 223.175L164.487 228.932ZM163.082 231.233C162.21 232.09 161.093 232.667 159.966 232.898L155.954 213.304C153.362 213.835 150.986 215.079 149.063 216.969L163.082 231.233ZM160.192 232.849C158.975 233.128 157.974 232.972 157.406 232.801L163.163 213.648C160.945 212.981 158.395 212.743 155.729 213.353L160.192 232.849ZM157.406 232.801C156.712 232.592 155.914 232.167 155.224 231.478L169.358 217.328C167.57 215.541 165.434 214.33 163.163 213.648L157.406 232.801ZM155.224 231.478C154.414 230.669 153.897 229.672 153.671 228.73L173.122 224.073C172.521 221.564 171.266 219.234 169.358 217.328L155.224 231.478ZM153.69 228.808C153.384 227.572 153.542 226.558 153.707 226.009L172.861 231.766C173.558 229.446 173.792 226.775 173.103 223.996L153.69 228.808ZM155.391 240.032C158.215 240.881 161.718 240.954 165.099 239.189L155.844 221.459C156.79 220.965 157.821 220.687 158.842 220.626C159.83 220.567 160.624 220.721 161.148 220.879L155.391 240.032ZM165.317 239.072C168.844 237.118 170.613 233.966 171.405 231.328L152.252 225.572C152.505 224.729 153.368 222.827 155.627 221.576L165.317 239.072ZM171.405 231.328C172.225 228.602 172.425 224.894 170.374 221.305L153.008 231.227C152.391 230.145 152.074 228.986 152.005 227.894C151.94 226.851 152.109 226.045 152.252 225.572L171.405 231.328ZM170.312 221.199C168.376 217.904 165.386 216.181 162.758 215.391L157.001 234.544C156.071 234.265 154.289 233.408 153.07 231.333L170.312 221.199ZM162.758 215.391C160.233 214.632 156.679 214.31 153.106 216.115L162.125 233.967C159.799 235.141 157.755 234.771 157.001 234.544L162.758 215.391ZM153.336 216.003C149.773 217.69 147.663 220.705 146.746 223.758L165.899 229.515C165.701 230.175 165.315 231.062 164.587 231.961C163.838 232.885 162.902 233.602 161.895 234.079L153.336 216.003ZM146.746 223.758C145.884 226.624 145.801 230.152 147.542 233.572L165.367 224.502C165.829 225.411 166.085 226.396 166.138 227.362C166.189 228.297 166.042 229.038 165.899 229.515L146.746 223.758ZM147.593 233.672C149.378 237.084 152.352 239.119 155.391 240.032L161.148 220.879C161.731 221.054 162.522 221.393 163.336 222.03C164.172 222.683 164.846 223.505 165.315 224.402L147.593 233.672ZM155.835 217.96L158.714 208.383L136.368 201.667L146.915 222.48L155.835 217.96ZM156.02 219.127L165.976 220.071L165.976 220.071L156.02 219.127ZM155.666 220.766L152.788 230.343L162.365 233.221L165.243 223.645L155.666 220.766ZM154.302 220.356L144.638 217.783L142.146 227.144L151.423 229.933L154.302 220.356ZM154.554 218.527L144.581 219.259L144.584 219.309L144.588 219.359L154.554 218.527ZM154.125 217.446L146.934 224.395L146.934 224.396L154.125 217.446ZM152.96 216.699L143.384 213.821L140.864 222.206L148.842 225.812L152.96 216.699ZM153.343 215.426L156.222 205.849L146.645 202.97L143.766 212.547L153.343 215.426ZM165.917 219.205L175.493 222.083L178.372 212.506L168.795 209.628L165.917 219.205ZM165.424 220.842L162.546 230.419L172.123 233.297L175.001 223.721L165.424 220.842ZM146.915 222.48C146.048 220.77 145.97 219.18 146.065 218.182L165.976 220.071C166.156 218.173 165.954 215.806 164.755 213.44L146.915 222.48ZM146.065 218.182C146.077 218.055 146.091 217.957 146.102 217.891C146.112 217.825 146.121 217.782 146.125 217.764C146.131 217.734 146.125 217.771 146.09 217.888L165.243 223.645C165.544 222.643 165.849 221.409 165.976 220.071L146.065 218.182ZM158.545 211.19L157.18 210.779L151.423 229.933L152.788 230.343L158.545 211.19ZM163.965 222.929C164.273 221.771 164.699 219.849 164.519 217.695L144.588 219.359C144.528 218.638 144.588 218.131 144.612 217.955C144.64 217.754 144.665 217.685 144.638 217.783L163.965 222.929ZM164.527 217.796C164.369 215.647 163.594 212.854 161.315 210.497L146.934 224.396C145.16 222.56 144.671 220.488 144.581 219.259L164.527 217.796ZM161.315 210.497C159.824 208.953 158.16 208.075 157.079 207.587L148.842 225.812C148.764 225.777 148.546 225.674 148.246 225.481C147.954 225.294 147.468 224.948 146.934 224.395L161.315 210.497ZM162.537 219.578L162.92 218.304L143.766 212.547L143.384 213.821L162.537 219.578ZM150.465 225.002L163.038 228.781L168.795 209.628L156.222 205.849L150.465 225.002ZM156.34 216.326L155.848 217.964L175.001 223.721L175.493 222.083L156.34 216.326ZM168.303 211.265L158.714 208.383L152.957 227.537L162.546 230.419L168.303 211.265Z" fill="#FEF9D2" mask="url(#path-10-outside-2_58_28)"/>
<mask id="path-12-outside-3_58_28" maskUnits="userSpaceOnUse" x="188.85" y="86.0113" width="51.6806" height="53.4464" fill="black">
<rect fill="white" x="188.85" y="86.0113" width="51.6806" height="53.4464"/>
<path d="M217.329 121.097C216.391 122.542 215.214 123.273 213.798 123.291C212.379 123.29 210.75 122.694 208.912 121.501C207.138 120.349 205.975 119.081 205.424 117.696C204.88 116.301 205.043 114.934 205.912 113.595C206.339 112.937 206.853 112.447 207.454 112.127C208.05 111.79 208.679 111.624 209.339 111.63C209.989 111.629 210.603 111.778 211.179 112.076L210.206 113.574C208.945 112.982 207.938 113.265 207.187 114.423C206.525 115.443 206.457 116.419 206.985 117.35C207.52 118.271 208.393 119.125 209.604 119.911L209.748 120.004L209.784 119.983C209.45 119.358 209.315 118.704 209.381 118.022C209.436 117.333 209.67 116.669 210.084 116.032C210.532 115.341 211.086 114.825 211.746 114.483C212.395 114.134 213.093 113.991 213.838 114.052C214.58 114.095 215.312 114.352 216.035 114.821C216.725 115.269 217.257 115.833 217.631 116.514C218.005 117.194 218.172 117.937 218.133 118.742C218.1 119.537 217.832 120.322 217.329 121.097ZM212.076 121.198C212.798 121.667 213.515 121.831 214.227 121.688C214.935 121.529 215.544 121.056 216.054 120.27C216.537 119.526 216.697 118.814 216.534 118.135C216.36 117.448 215.902 116.863 215.158 116.381C214.382 115.877 213.651 115.689 212.964 115.817C212.273 115.928 211.71 116.317 211.276 116.987C210.766 117.773 210.584 118.553 210.73 119.328C210.884 120.092 211.332 120.716 212.076 121.198ZM220.312 116.013C218.431 114.792 217.564 112.674 217.71 109.657L217.743 108.909C217.802 107.98 217.82 107.29 217.797 106.837C217.77 106.366 217.663 105.95 217.476 105.587C217.278 105.217 216.945 104.88 216.478 104.576C215.904 104.204 215.324 104.039 214.738 104.081C214.152 104.124 213.61 104.527 213.114 105.292C212.534 106.185 212.379 106.982 212.648 107.685C212.923 108.377 213.486 108.999 214.336 109.551L213.363 111.049C212.163 110.27 211.402 109.301 211.083 108.142C210.752 106.976 211.011 105.74 211.859 104.433C212.273 103.795 212.785 103.297 213.396 102.938C213.996 102.573 214.649 102.392 215.355 102.398C216.061 102.403 216.754 102.627 217.434 103.068C218.093 103.496 218.572 104.025 218.871 104.658C219.16 105.283 219.33 105.929 219.38 106.596C219.42 107.256 219.41 108.073 219.352 109.047C219.288 110.169 219.296 111.064 219.374 111.735C219.46 112.394 219.712 112.958 220.133 113.427L220.165 113.448L223.992 107.552L225.267 108.379L220.312 116.013Z"/>
</mask>
<path d="M217.329 121.097C216.391 122.542 215.214 123.273 213.798 123.291C212.379 123.29 210.75 122.694 208.912 121.501C207.138 120.349 205.975 119.081 205.424 117.696C204.88 116.301 205.043 114.934 205.912 113.595C206.339 112.937 206.853 112.447 207.454 112.127C208.05 111.79 208.679 111.624 209.339 111.63C209.989 111.629 210.603 111.778 211.179 112.076L210.206 113.574C208.945 112.982 207.938 113.265 207.187 114.423C206.525 115.443 206.457 116.419 206.985 117.35C207.52 118.271 208.393 119.125 209.604 119.911L209.748 120.004L209.784 119.983C209.45 119.358 209.315 118.704 209.381 118.022C209.436 117.333 209.67 116.669 210.084 116.032C210.532 115.341 211.086 114.825 211.746 114.483C212.395 114.134 213.093 113.991 213.838 114.052C214.58 114.095 215.312 114.352 216.035 114.821C216.725 115.269 217.257 115.833 217.631 116.514C218.005 117.194 218.172 117.937 218.133 118.742C218.1 119.537 217.832 120.322 217.329 121.097ZM212.076 121.198C212.798 121.667 213.515 121.831 214.227 121.688C214.935 121.529 215.544 121.056 216.054 120.27C216.537 119.526 216.697 118.814 216.534 118.135C216.36 117.448 215.902 116.863 215.158 116.381C214.382 115.877 213.651 115.689 212.964 115.817C212.273 115.928 211.71 116.317 211.276 116.987C210.766 117.773 210.584 118.553 210.73 119.328C210.884 120.092 211.332 120.716 212.076 121.198ZM220.312 116.013C218.431 114.792 217.564 112.674 217.71 109.657L217.743 108.909C217.802 107.98 217.82 107.29 217.797 106.837C217.77 106.366 217.663 105.95 217.476 105.587C217.278 105.217 216.945 104.88 216.478 104.576C215.904 104.204 215.324 104.039 214.738 104.081C214.152 104.124 213.61 104.527 213.114 105.292C212.534 106.185 212.379 106.982 212.648 107.685C212.923 108.377 213.486 108.999 214.336 109.551L213.363 111.049C212.163 110.27 211.402 109.301 211.083 108.142C210.752 106.976 211.011 105.74 211.859 104.433C212.273 103.795 212.785 103.297 213.396 102.938C213.996 102.573 214.649 102.392 215.355 102.398C216.061 102.403 216.754 102.627 217.434 103.068C218.093 103.496 218.572 104.025 218.871 104.658C219.16 105.283 219.33 105.929 219.38 106.596C219.42 107.256 219.41 108.073 219.352 109.047C219.288 110.169 219.296 111.064 219.374 111.735C219.46 112.394 219.712 112.958 220.133 113.427L220.165 113.448L223.992 107.552L225.267 108.379L220.312 116.013Z" fill="#D2C6AF"/>
<path d="M213.798 123.291L213.797 133.291L213.859 133.291L213.921 133.29L213.798 123.291ZM205.424 117.696L196.108 121.329L196.12 121.362L196.133 121.394L205.424 117.696ZM207.454 112.127L212.158 120.952L212.268 120.893L212.378 120.831L207.454 112.127ZM209.339 111.63L209.249 121.629L209.302 121.63L209.354 121.63L209.339 111.63ZM211.179 112.076L219.567 117.521L225.571 108.271L215.779 103.197L211.179 112.076ZM210.206 113.574L205.956 122.626L213.848 126.332L218.594 119.019L210.206 113.574ZM206.985 117.35L198.285 122.28L198.311 122.326L198.337 122.372L206.985 117.35ZM209.748 120.004L204.303 128.392L209.487 131.757L214.815 128.625L209.748 120.004ZM209.784 119.983L214.852 128.604L223.135 123.735L218.601 115.264L209.784 119.983ZM209.381 118.022L219.335 118.976L219.343 118.895L219.349 118.814L209.381 118.022ZM211.746 114.483L216.346 123.362L216.412 123.328L216.478 123.292L211.746 114.483ZM213.838 114.052L213.021 124.018L213.136 124.028L213.251 124.034L213.838 114.052ZM217.631 116.514L226.396 111.7L226.396 111.7L217.631 116.514ZM218.133 118.742L208.145 118.254L208.143 118.294L208.141 118.334L218.133 118.742ZM214.227 121.688L216.187 131.494L216.308 131.47L216.428 131.443L214.227 121.688ZM216.534 118.135L226.258 115.803L226.244 115.744L226.229 115.684L216.534 118.135ZM212.964 115.817L214.541 125.692L214.668 125.672L214.794 125.648L212.964 115.817ZM210.73 119.328L200.904 121.186L200.915 121.242L200.926 121.297L210.73 119.328ZM208.941 115.652C209.082 115.435 209.54 114.81 210.465 114.235C211.461 113.616 212.602 113.304 213.676 113.291L213.921 133.29C219.432 133.222 223.41 130.096 225.717 126.542L208.941 115.652ZM213.8 113.291C214.491 113.291 214.902 113.435 214.952 113.453C214.982 113.464 214.946 113.453 214.839 113.398C214.733 113.343 214.572 113.253 214.357 113.113L203.468 129.888C206.111 131.604 209.661 133.29 213.797 133.291L213.8 113.291ZM214.357 113.113C214.023 112.896 213.978 112.816 214.081 112.928C214.195 113.052 214.478 113.403 214.716 113.999L196.133 121.394C197.71 125.357 200.659 128.065 203.468 129.888L214.357 113.113ZM214.741 114.063C215.012 114.757 215.197 115.717 215.068 116.805C214.942 117.867 214.566 118.629 214.299 119.04L197.524 108.151C195.037 111.981 194.307 116.711 196.108 121.329L214.741 114.063ZM214.299 119.04C213.949 119.58 213.268 120.36 212.158 120.952L202.75 103.303C200.438 104.535 198.73 106.293 197.524 108.151L214.299 119.04ZM212.378 120.831C211.506 121.324 210.413 121.64 209.249 121.629L209.43 101.63C206.945 101.608 204.595 102.255 202.529 103.424L212.378 120.831ZM209.354 121.63C208.4 121.631 207.43 121.397 206.579 120.955L215.779 103.197C213.775 102.159 211.579 101.627 209.325 101.63L209.354 121.63ZM202.791 106.632L201.819 108.13L218.594 119.019L219.567 117.521L202.791 106.632ZM214.457 104.523C212.384 103.549 209.291 102.734 205.8 103.715C202.293 104.701 200.067 107.025 198.799 108.978L215.574 119.868C215.058 120.663 213.711 122.267 211.211 122.969C208.727 123.667 206.768 123.007 205.956 122.626L214.457 104.523ZM198.799 108.978C197.765 110.572 196.839 112.685 196.663 115.234C196.482 117.863 197.15 120.277 198.285 122.28L215.686 112.42C216.293 113.492 216.73 114.952 216.616 116.606C216.508 118.178 215.947 119.294 215.574 119.868L198.799 108.978ZM198.337 122.372C199.89 125.046 202.077 126.947 204.16 128.299L215.049 111.523C214.901 111.427 214.919 111.42 215.032 111.531C215.149 111.646 215.386 111.904 215.633 112.329L198.337 122.372ZM204.16 128.299L204.303 128.392L215.192 111.616L215.049 111.523L204.16 128.299ZM214.815 128.625L214.852 128.604L204.717 111.362L204.68 111.383L214.815 128.625ZM218.601 115.264C219.163 116.315 219.464 117.628 219.335 118.976L199.427 117.068C199.166 119.781 199.737 122.401 200.968 124.701L218.601 115.264ZM219.349 118.814C219.26 119.943 218.872 120.86 218.472 121.476L201.696 110.587C200.468 112.478 199.612 114.722 199.412 117.229L219.349 118.814ZM218.472 121.476C218.08 122.079 217.387 122.823 216.346 123.362L207.146 105.604C204.786 106.827 202.984 108.603 201.696 110.587L218.472 121.476ZM216.478 123.292C215.401 123.871 214.167 124.112 213.021 124.018L214.655 104.085C212.018 103.869 209.389 104.397 207.014 105.674L216.478 123.292ZM213.251 124.034C212.005 123.961 211.088 123.531 210.59 123.208L221.479 106.433C219.537 105.172 217.155 104.229 214.425 104.069L213.251 124.034ZM210.59 123.208C209.982 122.814 209.335 122.182 208.866 121.327L226.396 111.7C225.18 109.485 223.468 107.724 221.479 106.433L210.59 123.208ZM208.866 121.327C208.315 120.324 208.097 119.221 208.145 118.254L228.121 119.23C228.247 116.653 227.695 114.065 226.396 111.7L208.866 121.327ZM208.141 118.334C208.193 117.062 208.629 116.133 208.941 115.652L225.717 126.542C227.036 124.51 228.008 122.011 228.124 119.15L208.141 118.334ZM206.631 129.586C209.104 131.191 212.446 132.242 216.187 131.494L212.267 111.882C213.312 111.673 214.38 111.695 215.377 111.923C216.343 112.142 217.061 112.512 217.521 112.811L206.631 129.586ZM216.428 131.443C220.362 130.555 222.942 128.024 224.442 125.714L207.666 114.825C208.145 114.087 209.507 112.502 212.025 111.934L216.428 131.443ZM224.442 125.714C225.992 123.326 227.222 119.823 226.258 115.803L206.809 120.466C206.519 119.254 206.539 118.053 206.779 116.985C207.008 115.965 207.397 115.24 207.666 114.825L224.442 125.714ZM226.229 115.684C225.292 111.978 222.904 109.487 220.603 107.993L209.713 124.768C208.899 124.24 207.428 122.918 206.839 120.585L226.229 115.684ZM220.603 107.993C218.391 106.557 215.07 105.254 211.134 105.986L214.794 125.648C212.232 126.125 210.374 125.197 209.713 124.768L220.603 107.993ZM211.386 105.942C207.494 106.564 204.624 108.868 202.888 111.542L219.664 122.432C219.288 123.01 218.669 123.754 217.719 124.412C216.741 125.09 215.642 125.516 214.541 125.692L211.386 105.942ZM202.888 111.542C201.259 114.052 200.191 117.416 200.904 121.186L220.556 117.47C220.746 118.473 220.715 119.49 220.496 120.432C220.283 121.344 219.935 122.014 219.664 122.432L202.888 111.542ZM200.926 121.297C201.684 125.072 203.969 127.858 206.631 129.586L217.521 112.811C218.031 113.142 218.695 113.689 219.299 114.528C219.919 115.39 220.335 116.367 220.535 117.36L200.926 121.297ZM220.312 116.013L214.867 124.401L223.255 129.845L228.7 121.458L220.312 116.013ZM217.71 109.657L227.698 110.14L227.699 110.119L227.7 110.098L217.71 109.657ZM217.743 108.909L207.763 108.275L207.757 108.372L207.753 108.469L217.743 108.909ZM217.797 106.837L227.784 106.327L227.782 106.297L227.78 106.267L217.797 106.837ZM217.476 105.587L226.364 101.005L226.33 100.939L226.295 100.873L217.476 105.587ZM212.648 107.685L203.306 111.255L203.331 111.319L203.356 111.383L212.648 107.685ZM214.336 109.551L222.724 114.996L228.168 106.608L219.78 101.163L214.336 109.551ZM213.363 111.049L207.919 119.437L216.306 124.882L221.751 116.494L213.363 111.049ZM211.083 108.142L220.722 105.481L220.713 105.448L220.704 105.415L211.083 108.142ZM213.396 102.938L218.463 111.559L218.533 111.518L218.601 111.476L213.396 102.938ZM215.355 102.398L215.431 92.3981L215.431 92.3981L215.355 102.398ZM218.871 104.658L227.95 100.466L227.93 100.422L227.909 100.378L218.871 104.658ZM219.38 106.596L229.362 105.996L229.357 105.92L229.351 105.844L219.38 106.596ZM219.352 109.047L209.37 108.449L209.369 108.465L209.368 108.481L219.352 109.047ZM219.374 111.735L209.442 112.898L209.449 112.958L209.457 113.018L219.374 111.735ZM220.133 113.427L212.685 120.1L213.572 121.091L214.688 121.815L220.133 113.427ZM220.165 113.448L214.72 121.836L223.108 127.281L228.552 118.893L220.165 113.448ZM223.992 107.552L229.437 99.1637L221.049 93.719L215.604 102.107L223.992 107.552ZM225.267 108.379L233.655 113.824L239.1 105.436L230.712 99.9913L225.267 108.379ZM225.757 107.625C226.113 107.856 226.482 108.173 226.813 108.575C227.143 108.975 227.365 109.376 227.505 109.719C227.773 110.373 227.674 110.633 227.698 110.14L207.721 109.175C207.471 114.349 208.99 120.586 214.867 124.401L225.757 107.625ZM227.7 110.098L227.733 109.349L207.753 108.469L207.72 109.217L227.7 110.098ZM227.723 109.542C227.786 108.541 227.837 107.379 227.784 106.327L207.809 107.347C207.803 107.222 207.809 107.229 207.804 107.436C207.799 107.622 207.787 107.896 207.763 108.275L227.723 109.542ZM227.78 106.267C227.686 104.611 227.285 102.791 226.364 101.005L208.587 110.168C208.04 109.108 207.854 108.122 207.813 107.407L227.78 106.267ZM226.295 100.873C225.081 98.6028 223.358 97.1205 221.922 96.1886L211.033 112.964C210.532 112.639 209.474 111.83 208.656 110.301L226.295 100.873ZM221.922 96.1886C219.832 94.832 217.12 93.8833 214.018 94.1072L215.458 114.055C213.528 114.195 211.975 113.576 211.033 112.964L221.922 96.1886ZM214.018 94.1072C208.891 94.4773 205.968 97.9344 204.726 99.8475L221.501 110.737C221.253 111.12 219.412 113.77 215.458 114.055L214.018 94.1072ZM204.726 99.8475C203.175 102.237 201.473 106.457 203.306 111.255L221.989 104.116C222.575 105.651 222.628 107.187 222.378 108.471C222.148 109.654 221.705 110.424 221.501 110.737L204.726 99.8475ZM203.356 111.383C204.629 114.581 206.917 116.657 208.891 117.939L219.78 101.163C220.055 101.341 221.217 102.173 221.939 103.988L203.356 111.383ZM205.948 104.107L204.975 105.605L221.751 116.494L222.724 114.996L205.948 104.107ZM218.808 102.661C218.985 102.777 219.361 103.056 219.761 103.566C220.177 104.097 220.521 104.753 220.722 105.481L201.443 110.802C202.533 114.753 205.078 117.593 207.919 119.437L218.808 102.661ZM220.704 105.415C220.998 106.454 221.004 107.495 220.817 108.39C220.642 109.225 220.344 109.729 220.247 109.877L203.472 98.988C201.533 101.975 200.133 106.181 201.462 110.869L220.704 105.415ZM220.247 109.877C219.879 110.444 219.288 111.074 218.463 111.559L208.328 94.3172C206.283 95.5197 204.667 97.146 203.472 98.988L220.247 109.877ZM218.601 111.476C217.602 112.086 216.424 112.406 215.278 112.398L215.431 92.3981C212.873 92.3785 210.389 93.0593 208.19 94.4001L218.601 111.476ZM215.278 112.398C213.809 112.386 212.667 111.895 211.989 111.456L222.879 94.6802C220.842 93.3579 218.313 92.4201 215.431 92.3981L215.278 112.398ZM211.989 111.456C211.289 111.001 210.422 110.18 209.833 108.937L227.909 100.378C226.722 97.8706 224.897 95.9903 222.879 94.6802L211.989 111.456ZM209.792 108.85C209.596 108.424 209.45 107.908 209.408 107.349L229.351 105.844C229.209 103.951 228.724 102.142 227.95 100.466L209.792 108.85ZM209.398 107.197C209.405 107.319 209.414 107.706 209.37 108.449L229.334 109.645C229.406 108.44 229.434 107.194 229.362 105.996L209.398 107.197ZM209.368 108.481C209.29 109.854 209.267 111.402 209.442 112.898L229.306 110.571C229.32 110.689 229.311 110.673 229.309 110.477C229.308 110.291 229.313 110.009 229.336 109.613L209.368 108.481ZM209.457 113.018C209.787 115.564 210.838 118.039 212.685 120.1L227.581 106.755C228.587 107.877 229.133 109.223 229.292 110.451L209.457 113.018ZM214.688 121.815L214.72 121.836L225.609 105.06L225.577 105.04L214.688 121.815ZM228.552 118.893L232.38 112.996L215.604 102.107L211.777 108.003L228.552 118.893ZM218.548 115.939L219.823 116.767L230.712 99.9913L229.437 99.1637L218.548 115.939ZM216.879 102.934L211.924 110.568L228.7 121.458L233.655 113.824L216.879 102.934Z" fill="#FEF9D2" mask="url(#path-12-outside-3_58_28)"/>
<mask id="path-14-outside-4_58_28" maskUnits="userSpaceOnUse" x="187.912" y="537.613" width="60.8476" height="60.6227" fill="black">
<rect fill="white" x="187.912" y="537.613" width="60.8476" height="60.6227"/>
<path d="M222.902 570.375C223.466 571.156 223.807 571.941 223.925 572.731C224.032 573.529 223.95 574.259 223.68 574.923C223.4 575.595 222.974 576.152 222.404 576.596L221.358 575.148C221.901 574.646 222.238 574.074 222.369 573.433C222.482 572.789 222.264 572.087 221.715 571.327C221.173 570.578 220.521 570.151 219.758 570.046C218.987 569.931 218.181 570.177 217.339 570.785C216.569 571.342 216.143 571.954 216.063 572.621C215.972 573.296 216.187 573.993 216.706 574.712C217.448 575.738 218.342 576.272 219.387 576.314L220.456 577.792L213.925 580.823L209.697 574.97L210.929 574.08L214.345 578.808L218.02 577.114L218.051 577.092C216.978 576.992 216.041 576.387 215.24 575.278C214.766 574.621 214.497 573.925 214.434 573.189C214.364 572.443 214.492 571.733 214.818 571.06C215.144 570.387 215.636 569.813 216.293 569.338C217.042 568.796 217.832 568.484 218.662 568.4C219.485 568.305 220.272 568.432 221.023 568.78C221.764 569.135 222.391 569.667 222.902 570.375ZM216.412 561.392C217.272 562.583 217.698 563.745 217.687 564.877C217.66 566.007 217.127 566.946 216.09 567.695C215.413 568.185 214.739 568.398 214.068 568.336C213.398 568.273 212.714 568.04 212.017 567.638L211.986 567.66C212.173 568.978 211.758 570.005 210.742 570.739C209.838 571.392 208.904 571.591 207.938 571.335C206.954 571.077 206.088 570.429 205.339 569.392C204.589 568.355 204.25 567.334 204.321 566.33C204.375 565.322 204.853 564.492 205.757 563.839C206.763 563.113 207.868 563.041 209.071 563.625L209.102 563.603C208.939 562.814 208.932 562.092 209.083 561.436C209.235 560.78 209.649 560.207 210.326 559.718C211.363 558.968 212.426 558.763 213.515 559.102C214.586 559.438 215.551 560.201 216.412 561.392ZM214.998 566.281C215.655 565.806 215.999 565.222 216.029 564.528C216.041 563.832 215.758 563.083 215.18 562.282C214.601 561.481 213.983 560.982 213.325 560.786C212.65 560.586 211.983 560.724 211.326 561.199C210.69 561.659 210.36 562.24 210.337 562.944C210.307 563.638 210.581 564.385 211.16 565.186C211.739 565.987 212.366 566.487 213.041 566.687C213.709 566.876 214.362 566.741 214.998 566.281ZM209.696 569.291C210.815 568.483 210.892 567.411 209.928 566.076C208.964 564.742 207.922 564.479 206.803 565.287C206.238 565.695 205.943 566.174 205.918 566.723C205.893 567.273 206.111 567.866 206.571 568.502C207.031 569.139 207.525 569.531 208.055 569.68C208.584 569.829 209.131 569.699 209.696 569.291Z"/>
</mask>
<path d="M222.902 570.375C223.466 571.156 223.807 571.941 223.925 572.731C224.032 573.529 223.95 574.259 223.68 574.923C223.4 575.595 222.974 576.152 222.404 576.596L221.358 575.148C221.901 574.646 222.238 574.074 222.369 573.433C222.482 572.789 222.264 572.087 221.715 571.327C221.173 570.578 220.521 570.151 219.758 570.046C218.987 569.931 218.181 570.177 217.339 570.785C216.569 571.342 216.143 571.954 216.063 572.621C215.972 573.296 216.187 573.993 216.706 574.712C217.448 575.738 218.342 576.272 219.387 576.314L220.456 577.792L213.925 580.823L209.697 574.97L210.929 574.08L214.345 578.808L218.02 577.114L218.051 577.092C216.978 576.992 216.041 576.387 215.24 575.278C214.766 574.621 214.497 573.925 214.434 573.189C214.364 572.443 214.492 571.733 214.818 571.06C215.144 570.387 215.636 569.813 216.293 569.338C217.042 568.796 217.832 568.484 218.662 568.4C219.485 568.305 220.272 568.432 221.023 568.78C221.764 569.135 222.391 569.667 222.902 570.375ZM216.412 561.392C217.272 562.583 217.698 563.745 217.687 564.877C217.66 566.007 217.127 566.946 216.09 567.695C215.413 568.185 214.739 568.398 214.068 568.336C213.398 568.273 212.714 568.04 212.017 567.638L211.986 567.66C212.173 568.978 211.758 570.005 210.742 570.739C209.838 571.392 208.904 571.591 207.938 571.335C206.954 571.077 206.088 570.429 205.339 569.392C204.589 568.355 204.25 567.334 204.321 566.33C204.375 565.322 204.853 564.492 205.757 563.839C206.763 563.113 207.868 563.041 209.071 563.625L209.102 563.603C208.939 562.814 208.932 562.092 209.083 561.436C209.235 560.78 209.649 560.207 210.326 559.718C211.363 558.968 212.426 558.763 213.515 559.102C214.586 559.438 215.551 560.201 216.412 561.392ZM214.998 566.281C215.655 565.806 215.999 565.222 216.029 564.528C216.041 563.832 215.758 563.083 215.18 562.282C214.601 561.481 213.983 560.982 213.325 560.786C212.65 560.586 211.983 560.724 211.326 561.199C210.69 561.659 210.36 562.24 210.337 562.944C210.307 563.638 210.581 564.385 211.16 565.186C211.739 565.987 212.366 566.487 213.041 566.687C213.709 566.876 214.362 566.741 214.998 566.281ZM209.696 569.291C210.815 568.483 210.892 567.411 209.928 566.076C208.964 564.742 207.922 564.479 206.803 565.287C206.238 565.695 205.943 566.174 205.918 566.723C205.893 567.273 206.111 567.866 206.571 568.502C207.031 569.139 207.525 569.531 208.055 569.68C208.584 569.829 209.131 569.699 209.696 569.291Z" fill="#D2C6AF"/>
<path d="M223.925 572.731L233.835 571.396L233.826 571.327L233.815 571.258L223.925 572.731ZM223.68 574.923L232.907 578.779L232.925 578.736L232.942 578.693L223.68 574.923ZM222.404 576.596L214.298 582.452L220.363 590.847L228.541 584.491L222.404 576.596ZM221.358 575.148L214.572 567.802L208.06 573.818L213.252 581.004L221.358 575.148ZM222.369 573.433L232.168 575.428L232.195 575.293L232.219 575.159L222.369 573.433ZM219.758 570.046L218.281 579.936L218.339 579.945L218.397 579.953L219.758 570.046ZM216.063 572.621L225.974 573.952L225.983 573.884L225.991 573.816L216.063 572.621ZM219.387 576.314L227.493 570.458L224.644 566.514L219.783 566.322L219.387 576.314ZM220.456 577.792L224.665 586.863L235.66 581.761L228.561 571.936L220.456 577.792ZM213.925 580.823L205.819 586.679L210.651 593.366L218.135 589.894L213.925 580.823ZM209.697 574.97L203.841 566.865L195.735 572.721L201.591 580.827L209.697 574.97ZM210.929 574.08L219.035 568.224L213.178 560.118L205.073 565.975L210.929 574.08ZM214.345 578.808L206.239 584.665L211.058 591.335L218.531 587.89L214.345 578.808ZM218.02 577.114L222.206 586.196L223.089 585.789L223.876 585.22L218.02 577.114ZM218.051 577.092L223.907 585.198L245.48 569.611L218.981 567.135L218.051 577.092ZM214.434 573.189L224.398 572.337L224.394 572.294L224.39 572.251L214.434 573.189ZM214.818 571.06L205.818 566.699L205.818 566.699L214.818 571.06ZM218.662 568.4L219.669 578.349L219.735 578.342L219.801 578.334L218.662 568.4ZM221.023 568.78L225.346 559.762L225.285 559.733L225.224 559.705L221.023 568.78ZM214.797 576.232C214.614 575.979 214.195 575.29 214.034 574.204L233.815 571.258C233.418 568.592 232.319 566.333 231.008 564.519L214.797 576.232ZM214.014 574.066C213.918 573.35 213.953 572.296 214.418 571.154L232.942 578.693C233.948 576.223 234.146 573.707 233.835 571.396L214.014 574.066ZM214.453 571.068C214.832 570.162 215.466 569.323 216.267 568.7L228.541 584.491C230.483 582.982 231.967 581.028 232.907 578.779L214.453 571.068ZM230.51 570.739L229.464 569.292L213.252 581.004L214.298 582.452L230.51 570.739ZM228.143 582.494C230.018 580.762 231.565 578.388 232.168 575.428L212.57 571.438C212.911 569.76 213.785 568.53 214.572 567.802L228.143 582.494ZM232.219 575.159C232.968 570.881 231.258 567.461 229.821 565.471L213.609 577.184C213.269 576.713 211.995 574.697 212.519 571.707L232.219 575.159ZM229.821 565.471C228.024 562.984 225.122 560.689 221.118 560.139L218.397 579.953C217.291 579.801 216.241 579.4 215.342 578.811C214.475 578.244 213.924 577.619 213.609 577.184L229.821 565.471ZM221.235 560.155C217.112 559.54 213.716 561.066 211.482 562.68L223.195 578.891C222.645 579.289 220.861 580.321 218.281 579.936L221.235 560.155ZM211.482 562.68C209.407 564.179 206.667 567 206.135 571.427L225.991 573.816C225.619 576.907 223.73 578.505 223.195 578.891L211.482 562.68ZM206.152 571.291C205.627 575.199 207.049 578.421 208.6 580.568L224.812 568.855C225.324 569.564 226.318 571.393 225.974 573.952L206.152 571.291ZM208.6 580.568C210.72 583.502 214.224 586.117 218.991 586.306L219.783 566.322C220.922 566.367 222.066 566.703 223.062 567.298C224.006 567.862 224.555 568.5 224.812 568.855L208.6 580.568ZM211.282 582.17L212.35 583.649L228.561 571.936L227.493 570.458L211.282 582.17ZM216.246 568.722L209.716 571.752L218.135 589.894L224.665 586.863L216.246 568.722ZM222.031 574.966L217.803 569.114L201.591 580.827L205.819 586.679L222.031 574.966ZM215.553 583.076L216.785 582.186L205.073 565.975L203.841 566.865L215.553 583.076ZM202.823 579.937L206.239 584.665L222.451 572.952L219.035 568.224L202.823 579.937ZM218.531 587.89L222.206 586.196L213.834 568.033L210.159 569.727L218.531 587.89ZM223.876 585.22L223.907 585.198L212.194 568.986L212.164 569.009L223.876 585.22ZM218.981 567.135C220.102 567.24 221.133 567.623 221.966 568.161C222.75 568.667 223.178 569.19 223.346 569.422L207.135 581.135C209.135 583.903 212.438 586.611 217.121 587.049L218.981 567.135ZM223.346 569.422C223.826 570.086 224.291 571.094 224.398 572.337L204.47 574.04C204.702 576.756 205.705 579.156 207.135 581.135L223.346 569.422ZM224.39 572.251C224.491 573.321 224.29 574.445 223.817 575.42L205.818 566.699C204.693 569.021 204.236 571.564 204.478 574.127L224.39 572.251ZM223.817 575.42C223.362 576.359 222.718 577.032 222.149 577.444L210.436 561.232C208.553 562.593 206.926 564.414 205.818 566.699L223.817 575.42ZM222.149 577.444C221.631 577.818 220.774 578.237 219.669 578.349L217.655 558.45C214.89 558.73 212.453 559.775 210.436 561.232L222.149 577.444ZM219.801 578.334C218.798 578.449 217.738 578.279 216.822 577.855L225.224 559.705C222.806 558.586 220.171 558.161 217.523 558.465L219.801 578.334ZM216.7 577.797C215.841 577.385 215.198 576.788 214.797 576.232L231.008 564.519C229.583 562.546 227.687 560.885 225.346 559.762L216.7 577.797ZM217.687 564.877L227.684 565.123L227.686 565.044L227.687 564.966L217.687 564.877ZM214.068 568.336L213.138 578.292L213.138 578.292L214.068 568.336ZM212.017 567.638L217.018 558.978L211.41 555.739L206.161 559.532L212.017 567.638ZM211.986 567.66L206.13 559.554L201.239 563.088L202.085 569.063L211.986 567.66ZM207.938 571.335L210.494 561.667L210.486 561.665L210.477 561.663L207.938 571.335ZM204.321 566.33L214.296 567.036L214.303 566.948L214.307 566.86L204.321 566.33ZM209.071 563.625L204.705 572.621L210.082 575.231L214.927 571.731L209.071 563.625ZM209.102 563.603L214.958 571.708L220.207 567.916L218.894 561.574L209.102 563.603ZM209.083 561.436L218.828 563.68L218.828 563.68L209.083 561.436ZM213.515 559.102L216.507 549.56L216.496 549.556L216.486 549.553L213.515 559.102ZM216.029 564.528L226.02 564.962L226.025 564.834L226.027 564.707L216.029 564.528ZM213.325 560.786L216.19 551.205L216.174 551.2L216.158 551.195L213.325 560.786ZM210.337 562.944L220.328 563.378L220.33 563.322L220.332 563.267L210.337 562.944ZM213.041 566.687L210.208 576.277L210.262 576.293L210.315 576.308L213.041 566.687ZM205.918 566.723L195.929 566.269L195.929 566.269L205.918 566.723ZM208.055 569.68L205.349 579.307L205.349 579.307L208.055 569.68ZM208.306 567.248C208.289 567.225 207.674 566.346 207.688 564.788L227.687 564.966C227.721 561.143 226.256 557.941 224.518 555.536L208.306 567.248ZM207.69 564.631C207.715 563.631 207.984 562.527 208.567 561.498C209.129 560.508 209.8 559.903 210.234 559.589L221.947 575.801C225.134 573.498 227.569 569.818 227.684 565.123L207.69 564.631ZM210.234 559.589C211.027 559.016 212.714 558.166 214.999 558.379L213.138 578.292C216.763 578.631 219.798 577.353 221.947 575.801L210.234 559.589ZM214.999 558.379C216.016 558.474 216.708 558.799 217.018 558.978L207.016 576.297C208.72 577.282 210.78 578.072 213.138 578.292L214.999 558.379ZM206.161 559.532L206.13 559.554L217.843 575.766L217.873 575.743L206.161 559.532ZM202.085 569.063C201.982 568.333 201.97 567.091 202.544 565.671C203.132 564.216 204.076 563.218 204.885 562.633L216.598 578.845C218.424 577.525 220.083 575.648 221.087 573.166C222.075 570.719 222.178 568.305 221.887 566.257L202.085 569.063ZM204.885 562.633C205.376 562.279 206.181 561.831 207.284 561.596C208.42 561.355 209.533 561.413 210.494 561.667L205.381 581.003C209.603 582.119 213.584 581.023 216.598 578.845L204.885 562.633ZM210.477 561.663C212.264 562.132 213.195 563.191 213.444 563.536L197.233 575.249C198.98 577.667 201.644 580.022 205.398 581.007L210.477 561.663ZM213.444 563.536C213.688 563.874 214.432 565.127 214.296 567.036L194.346 565.624C194.069 569.542 195.49 572.837 197.233 575.249L213.444 563.536ZM214.307 566.86C214.255 567.842 213.972 568.925 213.384 569.945C212.812 570.938 212.121 571.578 211.613 571.945L199.9 555.734C196.838 557.946 194.567 561.43 194.335 565.8L214.307 566.86ZM211.613 571.945C210.781 572.546 209.534 573.12 207.986 573.22C206.484 573.317 205.337 572.928 204.705 572.621L213.437 554.628C211.601 553.738 209.3 553.093 206.694 553.262C204.042 553.433 201.739 554.406 199.9 555.734L211.613 571.945ZM214.927 571.731L214.958 571.708L203.245 555.497L203.215 555.519L214.927 571.731ZM218.894 561.574C218.966 561.925 219.058 562.684 218.828 563.68L199.338 559.192C198.807 561.5 198.911 563.704 199.31 565.631L218.894 561.574ZM218.828 563.68C218.314 565.916 216.976 567.25 216.183 567.823L204.47 551.612C202.322 553.164 200.155 555.644 199.338 559.192L218.828 563.68ZM216.183 567.823C215.734 568.147 214.932 568.601 213.798 568.82C212.623 569.047 211.488 568.944 210.544 568.65L216.486 549.553C211.994 548.156 207.701 549.278 204.47 551.612L216.183 567.823ZM210.522 568.643C208.98 568.16 208.318 567.265 208.306 567.248L224.518 555.536C222.784 553.137 220.191 550.715 216.507 549.56L210.522 568.643ZM220.855 574.387C223.524 572.458 225.834 569.242 226.02 564.962L206.038 564.095C206.092 562.849 206.451 561.57 207.129 560.417C207.782 559.307 208.565 558.592 209.142 558.175L220.855 574.387ZM226.027 564.707C226.092 561.108 224.617 558.268 223.285 556.426L207.074 568.138C206.9 567.898 205.991 566.555 206.031 564.35L226.027 564.707ZM223.285 556.426C221.966 554.599 219.706 552.256 216.19 551.205L210.46 570.367C208.26 569.709 207.237 568.363 207.074 568.138L223.285 556.426ZM216.158 551.195C212.039 549.979 208.208 551.115 205.47 553.093L217.183 569.304C216.583 569.738 215.63 570.267 214.341 570.533C213.006 570.808 211.674 570.725 210.492 570.376L216.158 551.195ZM205.47 553.093C202.653 555.128 200.477 558.437 200.343 562.622L220.332 563.267C220.294 564.444 219.978 565.716 219.303 566.909C218.646 568.068 217.829 568.837 217.183 569.304L205.47 553.093ZM200.347 562.511C200.185 566.233 201.702 569.17 203.054 571.043L219.266 559.33C219.461 559.6 220.429 561.043 220.328 563.378L200.347 562.511ZM203.054 571.043C204.418 572.93 206.703 575.242 210.208 576.277L215.874 557.097C218.028 557.733 219.059 559.044 219.266 559.33L203.054 571.043ZM210.315 576.308C214.336 577.447 218.108 576.371 220.855 574.387L209.142 558.175C209.764 557.726 210.722 557.201 212 556.936C213.318 556.662 214.62 556.741 215.767 557.066L210.315 576.308ZM215.552 577.397C217.773 575.793 220.258 572.886 220.567 568.602C220.845 564.756 219.192 561.823 218.034 560.22L201.822 571.933C201.629 571.665 200.419 569.935 200.619 567.161C200.851 563.948 202.738 561.982 203.839 561.186L215.552 577.397ZM218.034 560.22C216.876 558.617 214.61 556.127 210.872 555.182C206.707 554.131 203.167 555.577 200.946 557.181L212.659 573.393C211.558 574.189 209.098 575.362 205.975 574.574C203.278 573.893 202.016 572.201 201.822 571.933L218.034 560.22ZM200.946 557.181C198.63 558.855 196.128 561.882 195.929 566.269L215.908 567.178C215.841 568.638 215.395 570.024 214.673 571.197C213.987 572.309 213.195 573.005 212.659 573.393L200.946 557.181ZM195.929 566.269C195.765 569.863 197.235 572.656 198.465 574.359L214.676 562.646C214.987 563.076 216.022 564.682 215.908 567.178L195.929 566.269ZM198.465 574.359C199.695 576.061 201.885 578.334 205.349 579.307L210.76 560.053C213.166 560.729 214.366 562.216 214.676 562.646L198.465 574.359ZM205.349 579.307C209.576 580.495 213.236 579.071 215.552 577.397L203.839 561.186C204.376 560.798 205.285 560.265 206.557 559.964C207.897 559.646 209.353 559.658 210.76 560.053L205.349 579.307Z" fill="#FEF9D2" mask="url(#path-14-outside-4_58_28)"/>
<mask id="path-16-outside-5_58_28" maskUnits="userSpaceOnUse" x="288.385" y="638.46" width="60.9949" height="61.1636" fill="black">
<rect fill="white" x="288.385" y="638.46" width="60.9949" height="61.1636"/>
<path d="M323.299 669.629C324.056 670.224 324.6 670.885 324.931 671.612C325.254 672.349 325.377 673.074 325.3 673.787C325.216 674.509 324.961 675.163 324.534 675.746L323.13 674.643C323.514 674.01 323.68 673.368 323.629 672.715C323.56 672.065 323.157 671.451 322.42 670.871C321.693 670.3 320.948 670.07 320.185 670.179C319.413 670.281 318.705 670.74 318.064 671.557C317.477 672.304 317.237 673.01 317.344 673.673C317.443 674.347 317.841 674.958 318.538 675.505C319.534 676.288 320.541 676.555 321.557 676.307L322.992 677.433L317.55 682.146L311.872 677.686L312.811 676.491L317.398 680.094L320.463 677.453L320.487 677.423C319.428 677.622 318.361 677.299 317.285 676.454C316.648 675.954 316.197 675.358 315.934 674.668C315.661 673.97 315.588 673.253 315.716 672.516C315.844 671.779 316.159 671.091 316.659 670.454C317.231 669.727 317.904 669.208 318.678 668.899C319.443 668.581 320.234 668.486 321.053 668.614C321.863 668.751 322.612 669.089 323.299 669.629ZM317.243 665.21C316.39 666.296 315.285 667.272 313.928 668.139C312.561 668.998 311.158 669.676 309.72 670.173C308.275 670.681 307.01 670.968 305.927 671.035L305.903 671.065L311.566 675.513L310.627 676.709L303.47 671.087L304.292 670.041C305.585 669.994 306.962 669.706 308.424 669.179C309.877 668.662 311.262 667.954 312.58 667.056C313.89 666.168 314.971 665.181 315.824 664.095L317.243 665.21Z"/>
</mask>
<path d="M323.299 669.629C324.056 670.224 324.6 670.885 324.931 671.612C325.254 672.349 325.377 673.074 325.3 673.787C325.216 674.509 324.961 675.163 324.534 675.746L323.13 674.643C323.514 674.01 323.68 673.368 323.629 672.715C323.56 672.065 323.157 671.451 322.42 670.871C321.693 670.3 320.948 670.07 320.185 670.179C319.413 670.281 318.705 670.74 318.064 671.557C317.477 672.304 317.237 673.01 317.344 673.673C317.443 674.347 317.841 674.958 318.538 675.505C319.534 676.288 320.541 676.555 321.557 676.307L322.992 677.433L317.55 682.146L311.872 677.686L312.811 676.491L317.398 680.094L320.463 677.453L320.487 677.423C319.428 677.622 318.361 677.299 317.285 676.454C316.648 675.954 316.197 675.358 315.934 674.668C315.661 673.97 315.588 673.253 315.716 672.516C315.844 671.779 316.159 671.091 316.659 670.454C317.231 669.727 317.904 669.208 318.678 668.899C319.443 668.581 320.234 668.486 321.053 668.614C321.863 668.751 322.612 669.089 323.299 669.629ZM317.243 665.21C316.39 666.296 315.285 667.272 313.928 668.139C312.561 668.998 311.158 669.676 309.72 670.173C308.275 670.681 307.01 670.968 305.927 671.035L305.903 671.065L311.566 675.513L310.627 676.709L303.47 671.087L304.292 670.041C305.585 669.994 306.962 669.706 308.424 669.179C309.877 668.662 311.262 667.954 312.58 667.056C313.89 666.168 314.971 665.181 315.824 664.095L317.243 665.21Z" fill="#D2C6AF"/>
<path d="M324.931 671.612L334.09 667.597L334.062 667.533L334.033 667.469L324.931 671.612ZM325.3 673.787L335.233 674.949L335.238 674.903L335.243 674.857L325.3 673.787ZM324.534 675.746L318.357 683.61L326.502 690.008L332.61 681.644L324.534 675.746ZM323.13 674.643L314.583 669.452L309.981 677.03L316.953 682.507L323.13 674.643ZM323.629 672.715L333.598 671.932L333.588 671.795L333.573 671.659L323.629 672.715ZM320.185 670.179L321.492 680.093L321.55 680.086L321.608 680.077L320.185 670.179ZM317.344 673.673L327.238 672.22L327.228 672.152L327.217 672.085L317.344 673.673ZM321.557 676.307L327.734 668.443L323.909 665.438L319.184 666.592L321.557 676.307ZM322.992 677.433L329.538 684.992L338.701 677.057L329.169 669.569L322.992 677.433ZM317.55 682.146L311.372 690.01L317.86 695.107L324.096 689.706L317.55 682.146ZM311.872 677.686L304.008 671.509L297.831 679.373L305.695 685.55L311.872 677.686ZM312.811 676.491L318.988 668.627L311.124 662.45L304.947 670.314L312.811 676.491ZM317.398 680.094L311.22 687.958L317.692 693.041L323.925 687.67L317.398 680.094ZM320.463 677.453L326.991 685.028L327.727 684.394L328.327 683.63L320.463 677.453ZM320.487 677.423L328.351 683.6L344.791 662.671L318.637 667.596L320.487 677.423ZM315.934 674.668L325.277 671.103L325.262 671.062L325.246 671.022L315.934 674.668ZM315.716 672.516L305.864 670.805L305.864 670.805L315.716 672.516ZM318.678 668.899L322.389 678.185L322.45 678.16L322.511 678.135L318.678 668.899ZM321.053 668.614L322.722 658.754L322.656 658.743L322.59 658.732L321.053 668.614ZM317.122 677.493C316.876 677.3 316.284 676.754 315.829 675.754L334.033 667.469C332.916 665.016 331.236 663.148 329.476 661.765L317.122 677.493ZM315.772 675.627C315.482 674.965 315.226 673.942 315.358 672.716L335.243 674.857C335.528 672.205 335.026 669.732 334.09 667.597L315.772 675.627ZM315.368 672.624C315.482 671.648 315.86 670.668 316.459 669.848L332.61 681.644C334.061 679.658 334.949 677.371 335.233 674.949L315.368 672.624ZM330.712 667.882L329.307 666.779L316.953 682.507L318.357 683.61L330.712 667.882ZM331.677 679.833C333.002 677.652 333.835 674.943 333.598 671.932L313.66 673.499C313.526 671.792 314.026 670.368 314.583 669.452L331.677 679.833ZM333.573 671.659C333.114 667.341 330.528 664.524 328.597 663.008L316.243 678.735C315.786 678.377 314.006 676.79 313.685 673.772L333.573 671.659ZM328.597 663.008C326.185 661.113 322.763 659.706 318.762 660.281L321.608 680.077C320.503 680.236 319.383 680.14 318.356 679.822C317.367 679.516 316.665 679.067 316.243 678.735L328.597 663.008ZM318.879 660.265C314.747 660.809 311.902 663.213 310.2 665.38L325.928 677.734C325.509 678.268 324.079 679.753 321.492 680.093L318.879 660.265ZM310.2 665.38C308.619 667.393 306.763 670.86 307.471 675.262L327.217 672.085C327.711 675.159 326.336 677.215 325.928 677.734L310.2 665.38ZM307.45 675.127C308.023 679.028 310.278 681.733 312.361 683.369L324.715 667.642C325.403 668.182 326.862 669.666 327.238 672.22L307.45 675.127ZM312.361 683.369C315.207 685.605 319.296 687.153 323.931 686.021L319.184 666.592C320.291 666.322 321.483 666.329 322.605 666.627C323.668 666.909 324.37 667.37 324.715 667.642L312.361 683.369ZM315.38 684.17L316.814 685.297L329.169 669.569L327.734 668.443L315.38 684.17ZM316.445 669.874L311.003 674.587L324.096 689.706L329.538 684.992L316.445 669.874ZM323.727 674.283L318.049 669.823L305.695 685.55L311.372 690.01L323.727 674.283ZM319.736 683.864L320.675 682.668L304.947 670.314L304.008 671.509L319.736 683.864ZM306.634 684.355L311.22 687.958L323.575 672.23L318.988 668.627L306.634 684.355ZM323.925 687.67L326.991 685.028L313.936 669.877L310.87 672.519L323.925 687.67ZM328.327 683.63L328.351 683.6L312.623 671.246L312.6 671.275L328.327 683.63ZM318.637 667.596C319.743 667.387 320.839 667.472 321.788 667.759C322.682 668.029 323.238 668.414 323.463 668.59L311.108 684.318C313.794 686.428 317.716 688.12 322.337 687.25L318.637 667.596ZM323.463 668.59C324.107 669.097 324.832 669.937 325.277 671.103L306.591 678.233C307.563 680.779 309.189 682.81 311.108 684.318L323.463 668.59ZM325.246 671.022C325.638 672.023 325.754 673.158 325.569 674.226L305.864 670.805C305.422 673.347 305.684 675.917 306.623 678.314L325.246 671.022ZM325.569 674.226C325.39 675.254 324.957 676.079 324.523 676.631L308.795 664.276C307.36 666.104 306.298 668.303 305.864 670.805L325.569 674.226ZM324.523 676.631C324.128 677.134 323.42 677.773 322.389 678.185L314.968 659.613C312.387 660.644 310.333 662.319 308.795 664.276L324.523 676.631ZM322.511 678.135C321.579 678.522 320.513 678.65 319.516 678.495L322.59 658.732C319.956 658.323 317.307 658.641 314.845 659.663L322.511 678.135ZM319.383 678.473C318.443 678.314 317.661 677.917 317.122 677.493L329.476 661.765C327.562 660.262 325.283 659.187 322.722 658.754L319.383 678.473ZM317.243 665.21L325.107 671.388L331.284 663.524L323.421 657.347L317.243 665.21ZM313.928 668.139L319.247 676.607L319.278 676.587L319.31 676.567L313.928 668.139ZM309.72 670.173L306.451 660.723L306.429 660.73L306.408 660.738L309.72 670.173ZM305.927 671.035L305.31 661.054L300.833 661.331L298.063 664.858L305.927 671.035ZM305.903 671.065L298.039 664.888L291.862 672.751L299.726 678.929L305.903 671.065ZM311.566 675.513L319.43 681.691L325.607 673.827L317.743 667.649L311.566 675.513ZM310.627 676.709L304.45 684.572L312.314 690.75L318.491 682.886L310.627 676.709ZM303.47 671.087L295.606 664.909L289.429 672.773L297.293 678.95L303.47 671.087ZM304.292 670.041L303.928 660.047L299.293 660.216L296.428 663.863L304.292 670.041ZM308.424 669.179L305.07 659.758L305.05 659.765L305.029 659.773L308.424 669.179ZM312.58 667.056L306.968 658.779L306.958 658.786L306.948 658.793L312.58 667.056ZM315.824 664.095L322.001 656.232L314.137 650.054L307.96 657.918L315.824 664.095ZM309.379 659.033C309.326 659.101 309.11 659.351 308.546 659.711L319.31 676.567C321.461 675.194 323.454 673.492 325.107 671.388L309.379 659.033ZM308.609 659.671C307.846 660.15 307.128 660.489 306.451 660.723L312.99 679.624C315.189 678.863 317.275 677.845 319.247 676.607L308.609 659.671ZM306.408 660.738C305.983 660.887 305.674 660.972 305.473 661.018C305.268 661.064 305.222 661.06 305.31 661.054L306.544 681.016C308.837 680.874 311.044 680.307 313.032 679.609L306.408 660.738ZM298.063 664.858L298.039 664.888L313.767 677.242L313.791 677.212L298.063 664.858ZM299.726 678.929L305.389 683.377L317.743 667.649L312.081 663.201L299.726 678.929ZM303.702 669.336L302.763 670.531L318.491 682.886L319.43 681.691L303.702 669.336ZM316.804 668.845L309.648 663.223L297.293 678.95L304.45 684.572L316.804 668.845ZM311.334 677.264L312.156 676.218L296.428 663.863L295.606 664.909L311.334 677.264ZM304.656 680.034C307.167 679.943 309.572 679.396 311.818 678.585L305.029 659.773C304.353 660.017 304.004 660.045 303.928 660.047L304.656 680.034ZM311.777 678.6C314.063 677.786 316.211 676.683 318.212 675.319L306.948 658.793C306.313 659.225 305.691 659.537 305.07 659.758L311.777 678.6ZM318.192 675.333C320.234 673.948 322.112 672.279 323.688 670.273L307.96 657.918C307.83 658.083 307.545 658.388 306.968 658.779L318.192 675.333ZM309.646 671.959L311.066 673.074L323.421 657.347L322.001 656.232L309.646 671.959Z" fill="#FEF9D2" mask="url(#path-16-outside-5_58_28)"/>
</svg>
