<svg width="25" height="25" viewBox="0 0 25 25" fill="none" xmlns="http://www.w3.org/2000/svg">
<circle cx="12.5" cy="12.5" r="12.5" fill="#FFFCE8"/>
<path d="M12.5 7.69238V13.4616H16.3462" stroke="#F5991A" stroke-linecap="round"/>
<path d="M12.0588 3.86721V2.29342C12.0588 2.1952 12.0978 2.10101 12.1672 2.03156C12.2367 1.96211 12.3309 1.9231 12.4291 1.9231C12.5273 1.9231 12.6215 1.96211 12.691 2.03156C12.7604 2.10101 12.7994 2.1952 12.7994 2.29342V3.8679C12.7994 3.96612 12.7604 4.06031 12.691 4.12976C12.6215 4.19921 12.5273 4.23823 12.4291 4.23823C12.3309 4.23823 12.2367 4.19921 12.1672 4.12976C12.0978 4.06031 12.0588 3.96612 12.0588 3.8679V3.86721ZM23.0767 12.4307C23.0766 12.5289 23.0376 12.6231 22.9681 12.6925C22.8987 12.7619 22.8046 12.801 22.7064 12.8011H21.1319C21.0337 12.8011 20.9395 12.762 20.87 12.6926C20.8006 12.6231 20.7616 12.529 20.7616 12.4307C20.7616 12.3325 20.8006 12.2383 20.87 12.1689C20.9395 12.0994 21.0337 12.0604 21.1319 12.0604H22.7064C22.8046 12.0604 22.8988 12.0994 22.9682 12.1689C23.0377 12.2383 23.0767 12.3325 23.0767 12.4307ZM12.9408 21.1321V22.7066C12.9408 22.8048 12.9018 22.899 12.8323 22.9685C12.7629 23.0379 12.6687 23.0769 12.5704 23.0769C12.4722 23.0769 12.378 23.0379 12.3086 22.9685C12.2391 22.899 12.2001 22.8048 12.2001 22.7066V21.1321C12.2001 21.0339 12.2391 20.9397 12.3086 20.8703C12.378 20.8008 12.4722 20.7618 12.5704 20.7618C12.6687 20.7618 12.7629 20.8008 12.8323 20.8703C12.9018 20.9397 12.9408 21.0339 12.9408 21.1321ZM3.86766 12.941H2.29318C2.19496 12.941 2.10077 12.902 2.03132 12.8325C1.96187 12.7631 1.92285 12.6689 1.92285 12.5707C1.92285 12.4725 1.96187 12.3783 2.03132 12.3088C2.10077 12.2394 2.19496 12.2004 2.29318 12.2004H3.86766C3.96588 12.2004 4.06007 12.2394 4.12952 12.3088C4.19897 12.3783 4.23798 12.4725 4.23798 12.5707C4.23798 12.6689 4.19897 12.7631 4.12952 12.8325C4.06007 12.902 3.96588 12.941 3.86766 12.941ZM16.6416 4.44365L17.0129 3.80035C17.0634 3.71798 17.1441 3.65858 17.2377 3.63479C17.3313 3.61099 17.4305 3.62469 17.5142 3.67297C17.5979 3.72124 17.6594 3.80027 17.6857 3.89324C17.712 3.9862 17.7009 4.08574 17.6549 4.17067L17.2832 4.81398C17.2588 4.8561 17.2265 4.89303 17.1879 4.92264C17.1493 4.95226 17.1053 4.97398 17.0583 4.98658C17.0113 4.99917 16.9623 5.00239 16.9141 4.99604C16.8658 4.9897 16.8193 4.97392 16.7772 4.9496C16.7351 4.92529 16.6982 4.89291 16.6685 4.85433C16.6389 4.81574 16.6172 4.7717 16.6046 4.72472C16.592 4.67773 16.5888 4.62873 16.5951 4.58051C16.6015 4.53228 16.6173 4.48578 16.6416 4.44365ZM19.9794 8.10047C19.9303 8.01538 19.9169 7.91428 19.9423 7.81938C19.9677 7.72448 20.0298 7.64354 20.1148 7.59435L20.7581 7.22299C20.8432 7.17384 20.9443 7.16049 21.0392 7.18589C21.1341 7.2113 21.2151 7.27336 21.2642 7.35844C21.3134 7.44352 21.3267 7.54464 21.3013 7.63955C21.2759 7.73447 21.2139 7.81541 21.1288 7.86456L20.4855 8.23558C20.4434 8.25998 20.3968 8.27584 20.3486 8.28224C20.3004 8.28864 20.2513 8.28546 20.2043 8.27287C20.1573 8.26029 20.1132 8.23856 20.0746 8.20891C20.036 8.17927 20.0036 8.14265 19.9794 8.10047ZM21.3335 17.5193C21.2844 17.6044 21.2036 17.6665 21.1087 17.692C21.0139 17.7174 20.9128 17.7042 20.8277 17.6551L20.1844 17.2834C20.1423 17.2591 20.1054 17.2267 20.0758 17.1881C20.0462 17.1495 20.0244 17.1055 20.0118 17.0585C19.9992 17.0115 19.996 16.9625 20.0024 16.9143C20.0087 16.8661 20.0245 16.8196 20.0488 16.7775C20.0731 16.7353 20.1055 16.6984 20.1441 16.6688C20.1827 16.6392 20.2267 16.6174 20.2737 16.6049C20.3207 16.5923 20.3697 16.589 20.4179 16.5954C20.4661 16.6017 20.5126 16.6175 20.5548 16.6418L21.1981 17.0132C21.2831 17.0624 21.3451 17.1433 21.3705 17.2382C21.3959 17.3331 21.3826 17.4342 21.3335 17.5193ZM17.7758 20.7583C17.8001 20.8005 17.8159 20.847 17.8223 20.8952C17.8286 20.9434 17.8254 20.9925 17.8129 21.0395C17.8003 21.0865 17.7786 21.1305 17.749 21.1691C17.7194 21.2077 17.6824 21.2401 17.6403 21.2645C17.5982 21.2888 17.5517 21.3046 17.5035 21.311C17.4552 21.3173 17.4062 21.3141 17.3592 21.3016C17.3122 21.289 17.2681 21.2673 17.2295 21.2377C17.1909 21.2081 17.1585 21.1711 17.1342 21.129L16.7642 20.4857C16.7151 20.4006 16.7017 20.2995 16.7271 20.2046C16.7525 20.1097 16.8146 20.0287 16.8997 19.9796C16.9847 19.9304 17.0859 19.9171 17.1808 19.9425C17.2757 19.9679 17.3566 20.03 17.4058 20.115L17.7758 20.7583ZM8.35658 20.5564L7.98522 21.1997C7.95265 21.2561 7.90578 21.3029 7.84934 21.3355C7.7929 21.368 7.72889 21.3851 7.66374 21.385C7.59886 21.3851 7.53513 21.3679 7.4791 21.3351C7.43694 21.3109 7.39998 21.2785 7.37033 21.24C7.34068 21.2014 7.31893 21.1574 7.30632 21.1104C7.29371 21.0634 7.29048 21.0144 7.29682 20.9662C7.30317 20.918 7.31896 20.8715 7.3433 20.8294L7.71501 20.1861C7.76412 20.101 7.84501 20.0389 7.93989 20.0135C8.03478 19.988 8.13588 20.0013 8.22096 20.0504C8.30603 20.0995 8.36812 20.1804 8.39355 20.2753C8.41899 20.3702 8.40569 20.4713 8.35658 20.5564ZM5.0202 16.8996C5.0693 16.9847 5.08262 17.0858 5.05722 17.1807C5.03182 17.2756 4.96979 17.3565 4.88475 17.4057L4.24145 17.7771C4.15637 17.8262 4.05525 17.8395 3.96033 17.8141C3.86542 17.7887 3.78448 17.7267 3.73533 17.6416C3.68617 17.5565 3.67283 17.4554 3.69823 17.3605C3.72363 17.2656 3.7857 17.1846 3.87078 17.1355L4.51408 16.7641C4.59917 16.715 4.70027 16.7017 4.79517 16.7271C4.89007 16.7525 4.97101 16.8145 5.0202 16.8996ZM3.66604 7.48073C3.71511 7.39565 3.79596 7.33355 3.89081 7.30809C3.98566 7.28262 4.08674 7.29587 4.17182 7.34493L4.81512 7.71664C4.9002 7.76575 4.96228 7.84664 4.98772 7.94152C5.01315 8.03641 4.99985 8.13751 4.95074 8.22259C4.90164 8.30766 4.82074 8.36975 4.72586 8.39518C4.63098 8.42062 4.52987 8.40732 4.4448 8.35821L3.80149 7.98685C3.71645 7.93766 3.65442 7.85672 3.62902 7.76182C3.60363 7.66692 3.61694 7.56582 3.66604 7.48073ZM7.59515 4.88499L7.22378 4.24169C7.17463 4.15661 7.16129 4.05549 7.18669 3.96058C7.21209 3.86566 7.27416 3.78472 7.35923 3.73557C7.44431 3.68642 7.54543 3.67307 7.64035 3.69847C7.73526 3.72388 7.8162 3.78594 7.86536 3.87102L8.23672 4.51432C8.28587 4.5994 8.29922 4.70052 8.27382 4.79544C8.24841 4.89035 8.18635 4.97129 8.10127 5.02045C8.01619 5.0696 7.91507 5.08294 7.82016 5.05754C7.72524 5.03214 7.6443 4.97007 7.59515 4.88499Z" fill="#F5991A"/>
</svg>
